<svg width="120" height="68" viewBox="0 0 120 68" fill="none" xmlns="http://www.w3.org/2000/svg">
<g clip-path="url(#clip0_15967_3724)">
<path d="M72.7452 28.1814C71.4638 28.1814 70.4789 28.6371 69.5576 29.5908V28.4039H67.0476V40.0816H69.7482V33.3102C69.7482 31.7631 70.6695 30.7776 72.0675 30.7776C72.3216 30.7776 72.544 30.8094 72.7029 30.8412L74.5774 28.3721C73.8678 28.2344 73.2218 28.1814 72.7452 28.1814ZM96.0757 28.3933H92.9516L90.071 32.2082L87.1905 28.3933H84.0769L88.4825 34.2851L84.0769 40.0816H87.254L90.0604 36.3833L92.8669 40.0816H96.0863L91.6596 34.2957L96.0757 28.3933ZM39.2692 25.7653C38.3479 26.9946 38.1255 27.4078 37.2359 27.4078H23.9238V43.2394H29.1449C30.3204 43.2394 31.4641 42.6672 32.2055 41.7241C33.1586 40.4525 33.2857 40.0816 34.207 40.0816H47.5403V24.25H42.2875C41.1119 24.25 39.9682 24.8222 39.2692 25.7653ZM43.3994 36.0018H37.8289C36.6216 36.0018 35.5096 36.5105 34.7683 37.4854C33.8152 38.757 33.6246 39.1279 32.735 39.1279H28.0329V31.53H33.6034C34.8107 31.53 35.9227 30.9578 36.664 30.0146C37.6171 28.7854 37.8713 28.4039 38.7291 28.4039H43.41V36.0018H43.3994ZM63.394 32.1022C64.5695 31.4346 65.3956 30.269 65.3956 28.7112C65.3956 26.4329 63.6482 24.25 61.0959 24.25H53.4603V40.0816H61.0959C63.86 40.0816 65.7768 38.1212 65.7768 35.6521C65.7768 34.1898 65.1096 32.9288 63.394 32.1022ZM56.1714 26.719H60.8841C62.0596 26.719 62.7586 27.8317 62.7586 28.8066C62.7586 30.0146 61.7101 30.8306 60.7252 30.8306H56.1714V26.719ZM60.7146 37.6125H56.1608V33.2996H60.8735C62.0808 33.2996 63.0657 34.3487 63.0657 35.419C63.0763 36.627 61.8372 37.6125 60.7146 37.6125Z" fill="#010202"/>
<path d="M81.3765 36.7225C80.9317 37.4219 80.0739 37.8351 79.1208 37.8351C77.6275 37.8351 76.3885 36.8179 76.3885 35.2707H84.4689C84.596 34.7939 84.6277 34.5713 84.6277 34.1581C84.6277 30.6082 82.4355 28.1709 79.1208 28.1709C75.8695 28.1709 73.582 30.481 73.582 34.2534C73.582 37.9305 75.7742 40.3042 79.1843 40.3042C81.5671 40.3042 83.6746 39.1385 84.2783 36.7225C84.2677 36.7225 81.3765 36.7225 81.3765 36.7225ZM79.1102 30.6505C80.6034 30.6505 81.7578 31.6043 81.726 33.0242H76.4097C76.4097 31.6254 77.6169 30.6505 79.1102 30.6505Z" fill="#010202"/>
</g>
<defs>
<clipPath id="clip0_15967_3724">
<rect width="72.1519" height="19" fill="white" transform="translate(23.9238 24.25)"/>
</clipPath>
</defs>
</svg>
