<svg width="120" height="68" viewBox="0 0 120 68" fill="none" xmlns="http://www.w3.org/2000/svg">
<g clip-path="url(#clip0_15967_3903)">
<path d="M90.5092 41.2919L90.3868 41.6361H90.3416L90.2192 41.2928V41.6361H90.1405V41.167H90.2383L90.3641 41.5155L90.4901 41.167H90.5877V41.6361H90.5092V41.2919ZM90.0715 41.2378H89.9432V41.6361H89.8637V41.2378H89.7344V41.167H90.0715V41.2378Z" fill="#262A38"/>
<path d="M68.466 25.8062V41.5069H65.2841V39.9056C64.9514 40.4671 64.4732 40.9246 63.8908 41.2157C63.267 41.5277 62.5599 41.694 61.853 41.694C60.9795 41.7148 60.106 41.4653 59.3782 40.9662C58.6297 40.4671 58.0473 39.7809 57.6729 38.9698C57.2571 38.034 57.0491 37.0358 57.0698 36.0168C57.0491 34.9978 57.2571 33.9996 57.6729 33.0847C58.0473 32.2944 58.6297 31.6082 59.3575 31.1299C60.106 30.6516 60.9795 30.4228 61.853 30.4436C62.5392 30.4436 63.2253 30.5892 63.8284 30.9011C64.4109 31.1922 64.889 31.6289 65.2217 32.1696V26.8667L68.466 25.8062ZM64.6396 38.4083C65.0554 37.8676 65.2841 37.0774 65.2841 36.0584C65.2841 35.0394 65.0763 34.27 64.6396 33.7293C64.2028 33.1886 63.5164 32.8767 62.8095 32.8975C62.1024 32.8559 61.4163 33.1678 60.9586 33.7085C60.5221 34.2492 60.2931 35.0186 60.2931 36.0168C60.2931 37.0358 60.5221 37.8261 60.9586 38.3875C61.3953 38.949 62.1024 39.2609 62.8095 39.2402C63.5997 39.2402 64.2235 38.949 64.6396 38.4083Z" fill="#262A38"/>
<path d="M79.8409 31.1091C80.5895 31.5874 81.1719 32.2736 81.5253 33.0639C81.9411 33.9789 82.1491 34.977 82.1284 35.996C82.1491 37.015 81.9411 38.034 81.5253 38.949C81.1509 39.76 80.5688 40.4463 79.82 40.9454C79.0922 41.4237 78.2187 41.6733 77.3454 41.6525C76.6383 41.6733 75.9312 41.5069 75.3074 41.1742C74.7252 40.883 74.2468 40.4255 73.9348 39.864V41.4861H70.7324V26.8667L73.9557 25.8062V32.2112C74.2675 31.6497 74.7459 31.1922 75.3281 30.9011C75.9521 30.5684 76.6383 30.402 77.3454 30.4228C78.2187 30.402 79.0922 30.6516 79.8409 31.1091ZM78.2603 38.3875C78.6971 37.8261 78.9051 37.0358 78.9051 35.996C78.9051 34.9978 78.6971 34.2284 78.2603 33.6877C77.8236 33.147 77.2205 32.8767 76.4303 32.8767C75.7234 32.8351 75.037 33.147 74.5796 33.7085C74.1428 34.27 73.9348 35.0394 73.9348 36.0376C73.9348 37.0566 74.1428 37.8469 74.5796 38.3875C75.0163 38.949 75.7025 39.2609 76.4303 39.2194C77.1374 39.2609 77.8236 38.949 78.2603 38.3875Z" fill="#262A38"/>
<path d="M86.5788 33.1054V37.3061C86.5788 37.9092 86.7452 38.3459 87.0365 38.6162C87.3692 38.9074 87.8057 39.0529 88.2634 39.0321C88.6168 39.0321 88.9912 38.9697 89.324 38.8866V41.382C88.7209 41.59 88.097 41.694 87.473 41.6732C86.1423 41.6732 85.1231 41.2989 84.416 40.5502C83.7092 39.8016 83.3555 38.741 83.3555 37.3685V28.156L86.5788 27.1162V30.6931H89.324V33.1054H86.5788Z" fill="#262A38"/>
<path d="M51.1007 23.2066C51.6414 23.7265 51.9949 24.4127 52.0781 25.1614C52.0781 25.4733 51.9949 25.6813 51.8078 26.0764C51.6206 26.4715 49.3123 30.4643 48.6261 31.5665C48.2309 32.2111 48.023 32.9806 48.023 33.7292C48.023 34.4987 48.2309 35.2473 48.6261 35.892C49.3123 36.9941 51.6206 41.0077 51.8078 41.4028C51.9949 41.7979 52.0781 41.9851 52.0781 42.297C51.9949 43.0457 51.6622 43.7319 51.1215 44.231C50.6016 44.7717 49.9154 45.1252 49.1875 45.1876C48.8756 45.1876 48.6676 45.1044 48.2933 44.9173C47.919 44.7301 43.8431 42.4842 42.7409 41.7979C42.6577 41.7563 42.5745 41.6939 42.4705 41.6523L37.0221 38.429C37.1468 39.4688 37.6044 40.467 38.353 41.1948C38.4986 41.3404 38.6441 41.4652 38.8105 41.59C38.6857 41.6523 38.5401 41.7147 38.4154 41.7979C37.3132 42.4842 33.2996 44.7925 32.9045 44.9796C32.5094 45.1668 32.3222 45.25 31.9895 45.25C31.2409 45.1668 30.5546 44.8341 30.0555 44.2934C29.5148 43.7735 29.1613 43.0873 29.0781 42.3386C29.0989 42.0267 29.1821 41.7147 29.3485 41.4444C29.5356 41.0493 31.844 37.0357 32.5302 35.9335C32.9253 35.2889 33.1333 34.5402 33.1333 33.7708C33.1333 33.0014 32.9253 32.2527 32.5302 31.608C31.844 30.4643 29.5148 26.4507 29.3485 26.0556C29.1821 25.7853 29.0989 25.4733 29.0781 25.1614C29.1613 24.4127 29.494 23.7265 30.0347 23.2066C30.5546 22.6659 31.2409 22.3332 31.9895 22.25C32.3014 22.2708 32.6134 22.354 32.9045 22.5203C33.2373 22.6659 36.1694 24.3712 37.7291 25.2862L38.0827 25.4941C38.2074 25.5773 38.3114 25.6397 38.3946 25.6813L38.5609 25.7853L44.1134 29.071C43.9886 27.8232 43.344 26.6795 42.3458 25.91C42.4705 25.8477 42.6161 25.7853 42.7409 25.7021C43.8431 25.0158 47.8566 22.6867 48.2517 22.5203C48.5221 22.354 48.834 22.2708 49.1667 22.25C49.8946 22.3332 50.5809 22.6659 51.1007 23.2066ZM40.8693 35.2265L42.0546 34.0411C42.221 33.8748 42.221 33.6252 42.0546 33.4589L40.8693 32.2735C40.7029 32.1071 40.4534 32.1071 40.287 32.2735L39.1016 33.4589C38.9353 33.6252 38.9353 33.8748 39.1016 34.0411L40.287 35.2265C40.4326 35.3721 40.7029 35.3721 40.8693 35.2265Z" fill="#FF694A"/>
</g>
<defs>
<clipPath id="clip0_15967_3903">
<rect width="61.8444" height="23" fill="white" transform="translate(29.0781 22.25)"/>
</clipPath>
</defs>
</svg>
