<svg width="120" height="68" viewBox="0 0 120 68" fill="none" xmlns="http://www.w3.org/2000/svg">
<g clip-path="url(#clip0_15967_3906)">
<path d="M78.0268 43.3609C77.9429 43.3609 77.875 43.2929 77.875 43.2091V24.9253C77.875 24.8534 77.9256 24.7913 77.996 24.7767L81.1893 24.1165C81.2835 24.097 81.3718 24.1689 81.3718 24.2651V43.2091C81.3718 43.2929 81.3039 43.3609 81.2201 43.3609H78.0268Z" fill="#1C4396"/>
<path d="M37.9159 43.7476C36.641 43.7476 35.5027 43.438 34.501 42.8187C33.4993 42.1995 32.707 41.3526 32.1242 40.278C31.5414 39.2035 31.25 37.9832 31.25 36.6172C31.25 35.2513 31.5414 34.0401 32.1242 32.9838C32.707 31.9092 33.4993 31.0714 34.501 30.4704C35.5027 29.8512 36.641 29.5416 37.9159 29.5416C38.9358 29.5416 39.8283 29.7328 40.5932 30.1153C41.2076 30.4225 41.728 30.8295 42.1543 31.3365C42.2504 31.4507 42.4509 31.3857 42.4509 31.2365V24.5965C42.4509 24.5245 42.5014 24.4624 42.5719 24.4478L45.7653 23.7876C45.8594 23.7681 45.9478 23.8401 45.9478 23.9363V43.268C45.9478 43.3518 45.8798 43.4197 45.796 43.4197H42.9581C42.8856 43.4197 42.8233 43.3685 42.8092 43.2973L42.5181 41.8211C42.4925 41.6911 42.3221 41.6524 42.2373 41.7541C41.8298 42.243 41.3181 42.6798 40.7024 43.0646C39.9922 43.5199 39.0633 43.7476 37.9159 43.7476ZM38.6535 40.6878C39.7827 40.6878 40.7024 40.3145 41.4128 39.5677C42.1413 38.8028 42.5055 37.8284 42.5055 36.6446C42.5055 35.4607 42.1413 34.4955 41.4128 33.7487C40.7024 32.9838 39.7827 32.6013 38.6535 32.6013C37.5425 32.6013 36.6228 32.9746 35.8943 33.7214C35.1658 34.4681 34.8015 35.4334 34.8015 36.6172C34.8015 37.8011 35.1658 38.7755 35.8943 39.5404C36.6228 40.3053 37.5425 40.6878 38.6535 40.6878Z" fill="#1C4396"/>
<path d="M54.4741 43.7499C53.1082 43.7499 51.897 43.4585 50.8407 42.8757C49.7844 42.2929 48.9557 41.4733 48.3546 40.417C47.7536 39.3607 47.4531 38.1404 47.4531 36.7562C47.4531 35.3538 47.7445 34.1062 48.3273 33.0135C48.9284 31.9207 49.748 31.0738 50.786 30.4728C51.8424 29.8536 53.0809 29.5439 54.5015 29.5439C55.831 29.5439 57.0057 29.8353 58.0256 30.4182C59.0455 31.001 59.8378 31.8023 60.4025 32.8222C60.9852 33.8239 61.2766 34.9441 61.2766 36.1825C61.2766 36.3828 61.2675 36.5923 61.2493 36.8108C61.2493 36.9859 61.2435 37.1668 61.2318 37.3537C61.2269 37.4327 61.1608 37.4938 61.0815 37.4938H51.0853C50.9973 37.4938 50.9275 37.5685 50.9363 37.656C51.034 38.6353 51.3937 39.41 52.0155 39.9799C52.6893 40.5809 53.4998 40.8814 54.4469 40.8814C55.1571 40.8814 55.749 40.7266 56.2226 40.417C56.686 40.1081 57.0362 39.7182 57.2732 39.2475C57.2997 39.1947 57.3531 39.1603 57.4122 39.1603H60.6633C60.7648 39.1603 60.8377 39.2581 60.8056 39.3545C60.5457 40.1351 60.1381 40.8535 59.5829 41.5097C59 42.2018 58.2715 42.7482 57.3973 43.1489C56.5413 43.5496 55.567 43.7499 54.4741 43.7499ZM54.5015 32.3852C53.6455 32.3852 52.8896 32.631 52.234 33.1227C51.6187 33.5672 51.212 34.236 51.0136 35.1295C50.993 35.2222 51.0649 35.3083 51.1598 35.3083H57.5638C57.6513 35.3083 57.721 35.2345 57.7121 35.1475C57.6296 34.3302 57.3061 33.6734 56.7416 33.1774C56.1406 32.6492 55.3939 32.3852 54.5015 32.3852Z" fill="#1C4396"/>
<path d="M69.6871 43.7499C68.3211 43.7499 67.1099 43.4585 66.0536 42.8757C64.9973 42.2929 64.1686 41.4733 63.5676 40.417C62.9665 39.3607 62.666 38.1404 62.666 36.7562C62.666 35.3538 62.9574 34.1062 63.5403 33.0135C64.1413 31.9207 64.9608 31.0738 65.999 30.4728C67.0553 29.8536 68.2938 29.5439 69.7144 29.5439C71.0439 29.5439 72.2187 29.8353 73.2386 30.4182C74.2585 31.001 75.0508 31.8023 75.6153 32.8222C76.1982 33.8239 76.4896 34.9441 76.4896 36.1825C76.4896 36.3828 76.4804 36.5923 76.4623 36.8108C76.4623 36.9859 76.4564 37.1668 76.4447 37.3537C76.4398 37.4327 76.3737 37.4938 76.2943 37.4938H66.2982C66.2103 37.4938 66.1405 37.5685 66.1493 37.656C66.2469 38.6353 66.6066 39.41 67.2283 39.9799C67.9023 40.5809 68.7127 40.8814 69.6598 40.8814C70.3701 40.8814 70.962 40.7266 71.4355 40.417C71.8989 40.1081 72.2491 39.7182 72.4861 39.2475C72.5127 39.1947 72.5661 39.1603 72.6252 39.1603H75.8762C75.9778 39.1603 76.0506 39.2581 76.0185 39.3545C75.7587 40.1351 75.351 40.8535 74.7958 41.5097C74.2129 42.2018 73.4844 42.7482 72.6103 43.1489C71.7543 43.5496 70.7798 43.7499 69.6871 43.7499ZM69.7144 32.3852C68.8584 32.3852 68.1026 32.631 67.4469 33.1227C66.8316 33.5672 66.4248 34.236 66.2266 35.1295C66.206 35.2222 66.2778 35.3083 66.3727 35.3083H72.7767C72.8642 35.3083 72.9339 35.2345 72.9251 35.1475C72.8425 34.3302 72.519 33.6734 71.9546 33.1774C71.3535 32.6492 70.6068 32.3852 69.7144 32.3852Z" fill="#1C4396"/>
<path d="M85.9539 43.365C87.2541 43.365 88.3081 42.311 88.3081 41.0108C88.3081 39.7105 87.2541 38.6565 85.9539 38.6565C84.6536 38.6565 83.5996 39.7105 83.5996 41.0108C83.5996 42.311 84.6536 43.365 85.9539 43.365Z" fill="#2C71F0"/>
</g>
<defs>
<clipPath id="clip0_15967_3906">
<rect width="57.5" height="20" fill="white" transform="translate(31.25 23.75)"/>
</clipPath>
</defs>
</svg>
