<svg width="120" height="68" viewBox="0 0 120 68" fill="none" xmlns="http://www.w3.org/2000/svg">
<g clip-path="url(#clip0_2143_959)">
<path d="M17.0441 27.3841L10.556 31.5182L17.0441 35.6522L10.556 39.7863L4.06787 35.6299L10.556 31.4958L4.06787 27.3841L10.556 23.25L17.0441 27.3841ZM10.5224 41.1159L17.0106 36.9818L23.4987 41.1159L17.0106 45.25L10.5224 41.1159ZM17.0441 35.6299L23.5323 31.4958L17.0441 27.3841L23.4987 23.25L29.9869 27.3841L23.4987 31.5182L29.9869 35.6522L23.4987 39.7863L17.0441 35.6299Z" fill="#0061FF"/>
<path d="M35.0767 27.384H40.3231C43.6678 27.384 46.4309 29.317 46.4309 33.7304V34.6578C46.4309 39.1047 43.8468 41.1047 40.4238 41.1047H35.0767V27.384ZM38.0075 29.8757V38.6019H40.256C42.1577 38.6019 43.4329 37.3617 43.4329 34.6019V33.8757C43.4329 31.1159 42.0906 29.8757 40.1553 29.8757H38.0075ZM47.9858 30.0097H50.335L50.7153 32.5907C51.1628 30.8365 52.3038 29.898 54.3733 29.898H55.1004V32.8589H53.8923C51.5095 32.8589 50.9278 33.6857 50.9278 36.0321V41.1382H48.0306V30.0097H47.9858ZM55.6821 35.7974V35.4846C55.6821 31.7639 58.0648 29.7304 61.3089 29.7304C64.6201 29.7304 66.9356 31.7639 66.9356 35.4846V35.7974C66.9356 39.4511 64.6872 41.4176 61.3089 41.4176C57.718 41.384 55.6821 39.4622 55.6821 35.7974ZM63.9712 35.7639V35.4846C63.9712 33.4176 62.9309 32.1773 61.2753 32.1773C59.6533 32.1773 58.5794 33.317 58.5794 35.4846V35.7639C58.5794 37.7639 59.6197 38.9036 61.2753 38.9036C62.9309 38.8701 63.9712 37.7639 63.9712 35.7639ZM68.457 30.0097H70.8733L71.1529 32.1103C71.7346 30.7025 72.9763 29.7304 74.8109 29.7304C77.6411 29.7304 79.5092 31.7639 79.5092 35.5293V35.8421C79.5092 39.4958 77.4397 41.4287 74.8109 41.4287C73.0546 41.4287 71.8465 40.6354 71.2536 39.3617V44.9818H68.4234L68.457 30.0097ZM76.5672 35.7639V35.5181C76.5672 33.3058 75.4262 32.2108 73.9048 32.2108C72.2828 32.2108 71.2089 33.4511 71.2089 35.5181V35.7304C71.2089 37.6969 72.2492 38.9371 73.8712 38.9371C75.538 38.9036 76.5672 37.8421 76.5672 35.7639ZM83.7936 39.0824L83.5475 41.1159H81.0641V26.2891H83.8943V31.9762C84.5207 30.5237 85.7624 29.7304 87.5187 29.7304C90.1811 29.7639 92.1499 31.5963 92.1499 35.2835V35.6298C92.1499 39.317 90.2818 41.4287 87.4516 41.4287C85.5834 41.384 84.3753 40.5237 83.7936 39.0824ZM89.1743 35.6298V35.3505C89.1743 33.317 88.0668 32.1773 86.5119 32.1773C84.9234 32.1773 83.816 33.4511 83.816 35.384V35.6298C83.816 37.6969 84.8899 38.9036 86.4784 38.9036C88.1787 38.9036 89.1743 37.8421 89.1743 35.6298ZM93.3916 35.7974V35.4846C93.3916 31.7639 95.7743 29.7304 99.0184 29.7304C102.33 29.7304 104.645 31.7639 104.645 35.4846V35.7974C104.645 39.4511 102.363 41.4176 99.0184 41.4176C95.4275 41.384 93.3916 39.4622 93.3916 35.7974ZM101.703 35.7639V35.4846C101.703 33.4176 100.663 32.1773 99.0072 32.1773C97.3851 32.1773 96.3112 33.317 96.3112 35.4846V35.7639C96.3112 37.7639 97.3516 38.9036 99.0072 38.9036C100.674 38.8701 101.703 37.7639 101.703 35.7639ZM108.437 35.3505L104.533 30.0097H107.878L110.126 33.3505L112.409 30.0097H115.72L111.76 35.317L115.932 41.1159H112.655L110.104 37.4287L107.621 41.1159H104.198L108.437 35.3505Z" fill="black"/>
</g>
<defs>
<clipPath id="clip0_2143_959">
<rect width="111.864" height="22" fill="white" transform="translate(4.06787 23.25)"/>
</clipPath>
</defs>
</svg>
