<svg width="120" height="68" viewBox="0 0 120 68" fill="none" xmlns="http://www.w3.org/2000/svg">
<g clip-path="url(#clip0_15967_3907)">
<path d="M34.0792 34.5161C33.9397 37.9286 31.2533 40.575 27.904 40.575C24.3803 40.575 21.7637 37.7196 21.7637 34.2723C21.7637 30.7902 24.5896 27.9348 28.0785 27.9348C29.6484 27.9348 31.1835 28.5964 32.4744 29.8152L31.4626 31.0687C30.4857 30.1982 29.2647 29.6411 28.0785 29.6411C25.5316 29.6411 23.4732 31.7304 23.4732 34.2723C23.4732 36.8839 25.4269 38.8687 27.9389 38.8687C30.2066 38.8687 31.9511 37.2321 32.2999 35.108H27.1714V33.6107H34.0792V34.5161Z" fill="#0A0A0A"/>
<path d="M39.94 33.6804H38.9981C37.9514 33.6804 37.1141 34.5161 37.1141 35.5608V40.4706H35.4395V32.0786H36.8001V32.775C37.2536 32.3224 37.9863 32.0786 38.7887 32.0786H40.6029L39.94 33.6804Z" fill="#0A0A0A"/>
<path d="M49.1165 40.4705H47.6861V39.4259C46.5697 40.5054 44.8253 41.0277 43.0809 40.2616C41.79 39.7045 40.8131 38.4857 40.534 37.0929C40.0456 34.3768 42.1389 31.9741 44.7904 31.9741C45.9068 31.9741 46.9186 32.4268 47.6512 33.158V32.1134H49.0816L49.1165 40.4705ZM47.3721 36.8839C47.7559 35.1777 46.465 33.6456 44.7904 33.6456C43.3251 33.6456 42.1389 34.8295 42.1389 36.292C42.1389 37.9286 43.5693 39.1822 45.2439 38.9036C46.2906 38.6947 47.1628 37.8938 47.3721 36.8839Z" fill="#0A0A0A"/>
<path d="M52.5008 31.6258V32.0785H55.1872V33.541H52.5008V40.4356H50.8262V31.6606C50.8262 29.8151 52.1519 28.7356 53.8266 28.7356H55.8501L55.1872 30.3026H53.8266C53.059 30.3026 52.5008 30.8945 52.5008 31.6258Z" fill="#0A0A0A"/>
<path d="M64.0482 40.4705H62.6178V39.4259C61.5013 40.5054 59.7569 41.0277 58.0125 40.2616C56.7216 39.7045 55.7448 38.4857 55.4657 37.0929C54.9772 34.3768 57.0705 31.9741 59.722 31.9741C60.8384 31.9741 61.8502 32.4268 62.5829 33.158V32.1134H64.0133L64.0482 40.4705ZM62.3386 36.8839C62.7224 35.1777 61.4315 33.6456 59.7569 33.6456C58.2916 33.6456 57.1054 34.8295 57.1054 36.292C57.1054 37.9286 58.5358 39.1822 60.2105 38.9036C61.2571 38.6947 62.0944 37.8938 62.3386 36.8839Z" fill="#0A0A0A"/>
<path d="M73.0486 35.491V40.4705H71.3739V35.491C71.3739 34.4464 70.5017 33.6106 69.49 33.6106C68.4433 33.6106 67.606 34.4464 67.606 35.491V40.4705H65.8965V32.0785H67.292V32.8097C67.8851 32.2874 68.6875 31.9392 69.5598 31.9392C71.4786 31.9392 73.0486 33.541 73.0486 35.491Z" fill="#0A0A0A"/>
<path d="M82.9232 40.4705H81.4928V39.4259C80.3763 40.5054 78.6319 41.0277 76.8875 40.2616C75.5966 39.7045 74.6198 38.4857 74.3407 37.0929C73.8522 34.3768 75.9455 31.9741 78.597 31.9741C79.7134 31.9741 80.7252 32.4268 81.4579 33.158V32.1134H82.8883L82.9232 40.4705ZM81.1788 36.8839C81.5625 35.1777 80.2717 33.6456 78.597 33.6456C77.1317 33.6456 75.9455 34.8295 75.9455 36.292C75.9455 37.9286 77.3759 39.1822 79.0506 38.9036C80.0972 38.6947 80.9694 37.8938 81.1788 36.8839Z" fill="#0A0A0A"/>
<path d="M94.4005 40.4705H88.0508V28.0044H89.7254V38.7642H94.3656V40.4705H94.4005Z" fill="url(#paint0_linear_15967_3907)"/>
<path d="M103.402 40.4705H101.972V39.4258C101.239 40.1571 100.192 40.6097 99.0759 40.6097C96.6686 40.6097 94.7148 38.6597 94.7148 36.2571C94.7148 33.8892 96.6686 31.9392 99.0759 31.9392C100.192 31.9392 101.239 32.3919 101.972 33.1231V32.0785H103.437V40.4705H103.402ZM101.727 36.2222C101.727 34.7597 100.541 33.5758 99.041 33.5758C97.5757 33.5758 96.3895 34.7597 96.3895 36.2222C96.3895 37.7196 97.5757 38.9035 99.041 38.9035C100.541 38.9035 101.727 37.7196 101.727 36.2222Z" fill="url(#paint1_linear_15967_3907)"/>
<path d="M113.519 36.2571C113.519 38.6598 111.565 40.6098 109.158 40.6098C108.041 40.6098 106.995 40.1223 106.227 39.4258V40.4705H104.797V28.666H106.472V32.9142C107.169 32.2874 108.111 31.9044 109.158 31.9044C111.565 31.9044 113.519 33.8544 113.519 36.2571ZM111.775 36.2571C111.775 34.7946 110.588 33.6107 109.123 33.6107C107.658 33.6107 106.472 34.7946 106.472 36.2571C106.472 37.7196 107.658 38.9035 109.123 38.9035C110.588 38.9035 111.775 37.7196 111.775 36.2571Z" fill="url(#paint2_linear_15967_3907)"/>
<path d="M119.276 32.6358L118.543 33.8545C118.194 33.6456 117.566 33.2974 116.904 33.2974C116.276 33.2974 115.682 33.6108 115.682 34.1331C115.682 34.6902 116.345 34.934 117.183 35.2125C118.543 35.7 119.729 36.6054 119.729 37.9634C119.729 39.3563 118.543 40.5402 116.799 40.5402C115.752 40.5402 114.706 40.1224 114.008 39.6697L114.671 38.2768C115.159 38.5554 116.066 38.9036 116.764 38.9036C117.601 38.9036 117.985 38.3813 117.985 37.8938C117.985 37.3367 117.462 36.9884 116.31 36.5358C115.473 36.1875 114.112 35.6304 114.112 34.1331C114.112 32.7402 115.299 31.8 116.904 31.8C117.811 31.9045 118.578 32.2179 119.276 32.6358Z" fill="url(#paint3_linear_15967_3907)"/>
<path d="M18.2741 32.6009C18.2392 32.2875 18.2043 31.9045 18.0648 31.4866C17.9601 31.0687 17.7857 30.6161 17.5763 30.1286C17.3321 29.6759 17.0181 29.1536 16.6344 28.7009C16.4948 28.5268 16.3204 28.3179 16.111 28.1437C16.3901 27.0643 15.7622 26.1241 15.7622 26.1241C14.7155 26.0545 14.0526 26.4375 13.8084 26.6464C13.7735 26.6464 13.7386 26.6116 13.6689 26.5768C13.4944 26.5071 13.32 26.4375 13.1106 26.3679C12.9013 26.2982 12.7269 26.2634 12.5175 26.1937C12.3082 26.1589 12.1338 26.1241 11.9244 26.0893C11.8896 26.0893 11.8547 26.0893 11.8198 26.0893C11.3662 24.6268 10.0754 24 10.0754 24C8.61006 24.9402 8.33095 26.2286 8.33095 26.2286C8.33095 26.2286 8.33095 26.2634 8.33095 26.2982C8.26117 26.333 8.15651 26.333 8.08673 26.3679C7.98207 26.4027 7.8774 26.4375 7.73785 26.4723C7.63318 26.5071 7.52852 26.542 7.38896 26.6116C7.17963 26.7161 6.93542 26.8205 6.72609 26.925C6.51676 27.0295 6.30743 27.1687 6.0981 27.308C6.06321 27.308 6.06321 27.2732 6.06321 27.2732C4.03969 26.5071 2.2255 27.4473 2.2255 27.4473C2.05106 29.6411 3.02793 30.9991 3.23726 31.2429C3.20237 31.3821 3.13259 31.5214 3.0977 31.6607C2.95815 32.1482 2.8186 32.6357 2.74882 33.158C2.74882 33.2277 2.74882 33.2973 2.74882 33.367C0.864853 34.3071 0.306641 36.1875 0.306641 36.1875C1.87661 37.9982 3.69081 38.1027 3.69081 38.1027C3.93502 38.5205 4.17924 38.9036 4.49324 39.2866C4.63279 39.4259 4.73745 39.6 4.87701 39.7393C4.31879 41.3759 4.94678 42.7339 4.94678 42.7339C6.6912 42.8036 7.84251 41.9679 8.08673 41.7937C8.26117 41.8634 8.43561 41.8982 8.61006 41.9679C9.13338 42.1071 9.69159 42.1768 10.2498 42.2116C10.3894 42.2116 10.5289 42.2116 10.6685 42.2116H10.7731H10.808H10.8778H10.9476C11.7849 43.3955 13.2153 43.5348 13.2153 43.5348C14.2271 42.4554 14.2968 41.3759 14.2968 41.1321C14.2968 41.0973 14.2968 41.0973 14.2968 41.0973V41.0625C14.5062 40.9232 14.7155 40.7491 14.9248 40.575C15.3435 40.192 15.6924 39.7741 16.0064 39.3214C16.0413 39.2866 16.0762 39.2518 16.0762 39.1821C17.2275 39.2518 18.0648 38.4509 18.0648 38.4509C17.8555 37.2321 17.1926 36.6402 17.053 36.5357C17.053 36.5357 17.053 36.5357 17.0181 36.5357C17.0181 36.4661 17.0181 36.3964 17.0181 36.3268C17.0181 36.1875 17.0181 36.083 17.0181 35.9437V35.8393V35.8045V35.7696C17.0181 35.7348 17.0181 35.7348 17.0181 35.7348V35.6652V35.5607C17.0181 35.5259 17.0181 35.4911 17.0181 35.4562C17.0181 35.4214 17.0181 35.3866 17.0181 35.3518V35.2473V35.1429C16.9832 35.0036 16.9832 34.8643 16.9484 34.7598C16.8437 34.2375 16.6344 33.75 16.3553 33.2973C16.0762 32.8446 15.7622 32.4616 15.3784 32.1134C14.9946 31.7652 14.576 31.5214 14.1224 31.3125C13.6689 31.1036 13.2153 30.9991 12.7618 30.9295C12.5175 30.8946 12.3082 30.8946 12.064 30.8946H11.9942H11.9593H11.9244H11.8896H11.8198C11.7849 30.8946 11.75 30.8946 11.7151 30.8946C11.6104 30.8946 11.4709 30.9295 11.3662 30.9295C10.9127 30.9991 10.4591 31.1732 10.0754 31.417C9.69159 31.6607 9.34271 31.9393 9.09849 32.2527C8.81939 32.5661 8.61006 32.9491 8.4705 33.2973C8.33095 33.6804 8.26117 34.0634 8.22628 34.4116C8.22628 34.5161 8.22628 34.5857 8.22628 34.6902C8.22628 34.725 8.22628 34.725 8.22628 34.7598V34.8295C8.22628 34.8643 8.22628 34.9339 8.22628 34.9687C8.26117 35.1429 8.29606 35.3518 8.33095 35.5259C8.43561 35.8741 8.61006 36.1875 8.7845 36.4661C8.99383 36.7446 9.23804 36.9536 9.48226 37.1277C9.72648 37.3018 10.0056 37.4411 10.2847 37.5107C10.5638 37.5804 10.808 37.6152 11.0871 37.6152C11.122 37.6152 11.1569 37.6152 11.1918 37.6152H11.2267H11.2616C11.2965 37.6152 11.3313 37.6152 11.3313 37.6152C11.3313 37.6152 11.3313 37.6152 11.3662 37.6152H11.4011H11.436C11.4709 37.6152 11.5058 37.6152 11.5407 37.6152C11.5756 37.6152 11.6104 37.6152 11.6453 37.5804C11.7151 37.5804 11.75 37.5455 11.8198 37.5455C11.9244 37.5107 12.0291 37.4759 12.1338 37.4062C12.2384 37.3714 12.3082 37.3018 12.4129 37.2321C12.4478 37.2321 12.4478 37.1973 12.4827 37.1625C12.5873 37.0929 12.5873 36.9536 12.5175 36.8839C12.4478 36.8143 12.3431 36.7795 12.2733 36.8491C12.2384 36.8491 12.2384 36.8839 12.2035 36.8839C12.1338 36.9187 12.064 36.9536 11.9593 36.9884C11.8896 37.0232 11.7849 37.0232 11.7151 37.058C11.6802 37.058 11.6104 37.058 11.5756 37.058C11.5407 37.058 11.5407 37.058 11.5058 37.058C11.4709 37.058 11.4709 37.058 11.436 37.058C11.4011 37.058 11.4011 37.058 11.3662 37.058C11.3313 37.058 11.2965 37.058 11.2965 37.058H11.2616H11.2267C11.1918 37.058 11.1918 37.058 11.1569 37.058C10.9476 37.0232 10.7731 36.9884 10.5638 36.8839C10.3545 36.8143 10.18 36.675 10.0056 36.5357C9.83115 36.3964 9.69159 36.2223 9.58693 36.0134C9.48226 35.8045 9.3776 35.5955 9.34271 35.3518C9.30782 35.2473 9.30782 35.108 9.30782 35.0036C9.30782 34.9687 9.30782 34.9339 9.30782 34.8991V34.8643V34.8295C9.30782 34.7598 9.30782 34.6902 9.34271 34.6205C9.44737 34.0982 9.69159 33.6107 10.1103 33.2277C10.2149 33.1232 10.3196 33.0536 10.4242 32.9491C10.5289 32.8795 10.6685 32.8098 10.7731 32.7402C10.9127 32.6705 11.0173 32.6357 11.1569 32.6009C11.2965 32.5661 11.436 32.5312 11.5756 32.5312C11.6453 32.5312 11.7151 32.5312 11.7849 32.5312C11.8198 32.5312 11.8198 32.5312 11.8198 32.5312H11.8896H11.9244H11.9942C12.1338 32.5312 12.3082 32.5661 12.4478 32.6009C12.7618 32.6705 13.0409 32.775 13.32 32.9143C13.8782 33.2277 14.3317 33.6804 14.6108 34.2723C14.7504 34.5509 14.8551 34.8643 14.8899 35.1777C14.8899 35.2473 14.9248 35.3518 14.9248 35.4214V35.4911V35.5607C14.9248 35.5955 14.9248 35.5955 14.9248 35.6304C14.9248 35.6652 14.9248 35.6652 14.9248 35.7V35.7696V35.8393C14.9248 35.8741 14.9248 35.9437 14.9248 35.9786C14.9248 36.083 14.9248 36.1527 14.8899 36.2571C14.8899 36.3268 14.8551 36.4312 14.8551 36.5009C14.8551 36.5705 14.8202 36.675 14.7853 36.7446C14.7504 36.9187 14.6806 37.0929 14.6108 37.2321C14.4713 37.5455 14.2968 37.8589 14.0875 38.1375C13.6689 38.6946 13.1106 39.1821 12.4478 39.4607C12.1338 39.6 11.7849 39.7045 11.436 39.7741C11.2616 39.8089 11.0871 39.8089 10.9127 39.8437H10.8778H10.8429H10.7731H10.7382C10.6336 39.8437 10.5638 39.8437 10.4591 39.8437C10.0754 39.8089 9.69159 39.7393 9.34271 39.6348C8.99383 39.5304 8.64494 39.3911 8.29606 39.217C7.63318 38.8687 7.04008 38.3812 6.58653 37.7893C6.34232 37.5107 6.13299 37.1973 5.99343 36.8491C5.81899 36.5357 5.67944 36.1875 5.60966 35.8045C5.505 35.4562 5.43522 35.0732 5.43522 34.725V34.6554V34.4464V34.3768V34.342V34.3071V34.2375V34.2027C5.43522 34.1679 5.43522 34.0982 5.43522 34.0634C5.43522 33.8893 5.47011 33.7152 5.47011 33.5062C5.505 33.3321 5.53989 33.1232 5.57477 32.9491C5.60966 32.775 5.64455 32.5661 5.71433 32.392C5.81899 32.0437 5.95854 31.6955 6.0981 31.3473C6.41209 30.6857 6.79586 30.0937 7.2843 29.6411C7.38896 29.5366 7.52852 29.3973 7.66807 29.2929C7.80762 29.1884 7.94718 29.0839 8.08673 29.0143C8.22628 28.9098 8.36584 28.8402 8.50539 28.7705C8.57517 28.7357 8.64494 28.7009 8.71472 28.6661C8.74961 28.6661 8.7845 28.6312 8.81939 28.6312C8.85427 28.6312 8.88916 28.5964 8.92405 28.5964C9.0636 28.5268 9.23804 28.492 9.3776 28.4223C9.41249 28.4223 9.44737 28.3875 9.48226 28.3875C9.51715 28.3875 9.55204 28.3527 9.58693 28.3527C9.6567 28.3179 9.76137 28.3179 9.83115 28.283C9.86603 28.283 9.90092 28.2482 9.93581 28.2482C9.9707 28.2482 10.0056 28.2482 10.0405 28.2134C10.0754 28.2134 10.1103 28.2134 10.18 28.1786H10.2498H10.3196C10.3545 28.1786 10.3894 28.1786 10.4591 28.1437C10.494 28.1437 10.5638 28.1437 10.5987 28.1089C10.6336 28.1089 10.7034 28.1089 10.7382 28.1089C10.7731 28.1089 10.808 28.1089 10.8429 28.1089H10.9127H10.9476H10.9825C11.0173 28.1089 11.0871 28.1089 11.122 28.1089H11.1918H11.2267C11.2616 28.1089 11.2965 28.1089 11.3313 28.1089C11.5058 28.1089 11.6453 28.1089 11.8198 28.1089C12.1338 28.1089 12.4478 28.1437 12.7269 28.2134C13.32 28.3179 13.8782 28.5268 14.4015 28.7705C14.9248 29.0143 15.3784 29.3277 15.7622 29.6411C15.797 29.6759 15.797 29.6759 15.8319 29.7107C15.8668 29.7455 15.8668 29.7455 15.9017 29.7804C15.9366 29.8152 16.0064 29.85 16.0413 29.9196C16.0762 29.9545 16.1459 29.9893 16.1808 30.0589C16.2157 30.0937 16.2855 30.1634 16.3204 30.1982C16.4948 30.3723 16.6344 30.5464 16.7739 30.7205C17.053 31.0687 17.2972 31.4518 17.4717 31.8C17.4717 31.8348 17.5066 31.8348 17.5066 31.8696C17.5066 31.9045 17.5415 31.9045 17.5415 31.9393C17.5763 31.9741 17.5763 32.0089 17.6112 32.0786C17.6461 32.1134 17.6461 32.1482 17.681 32.2179C17.7159 32.2527 17.7159 32.2875 17.7508 32.3223C17.8206 32.4964 17.8903 32.6357 17.9252 32.775C17.995 33.0187 18.0648 33.2277 18.0997 33.4018C18.1346 33.4714 18.2043 33.5062 18.2741 33.5062C18.3439 33.5062 18.4137 33.4366 18.4137 33.367C18.309 33.0884 18.2741 32.8795 18.2741 32.6009Z" fill="url(#paint4_linear_15967_3907)"/>
</g>
<defs>
<linearGradient id="paint0_linear_15967_3907" x1="91.2313" y1="46.1824" x2="91.2313" y2="28.5503" gradientUnits="userSpaceOnUse">
<stop stop-color="#FFF100"/>
<stop offset="1" stop-color="#F05A28"/>
</linearGradient>
<linearGradient id="paint1_linear_15967_3907" x1="99.0381" y1="46.1824" x2="99.0381" y2="28.5503" gradientUnits="userSpaceOnUse">
<stop stop-color="#FFF100"/>
<stop offset="1" stop-color="#F05A28"/>
</linearGradient>
<linearGradient id="paint2_linear_15967_3907" x1="109.157" y1="46.1825" x2="109.157" y2="28.5503" gradientUnits="userSpaceOnUse">
<stop stop-color="#FFF100"/>
<stop offset="1" stop-color="#F05A28"/>
</linearGradient>
<linearGradient id="paint3_linear_15967_3907" x1="116.844" y1="46.1826" x2="116.844" y2="28.5504" gradientUnits="userSpaceOnUse">
<stop stop-color="#FFF100"/>
<stop offset="1" stop-color="#F05A28"/>
</linearGradient>
<linearGradient id="paint4_linear_15967_3907" x1="9.30597" y1="47.8812" x2="9.30597" y2="30.069" gradientUnits="userSpaceOnUse">
<stop stop-color="#FFF100"/>
<stop offset="1" stop-color="#F05A28"/>
</linearGradient>
<clipPath id="clip0_15967_3907">
<rect width="119.388" height="19.5" fill="white" transform="translate(0.306641 24)"/>
</clipPath>
</defs>
</svg>
