<svg width="120" height="68" viewBox="0 0 120 68" fill="none" xmlns="http://www.w3.org/2000/svg">
<g clip-path="url(#clip0_2143_946)">
<path fill-rule="evenodd" clip-rule="evenodd" d="M44.1705 24.25V30.8997H42.5038V24.25H35.8335V30.9043V30.923V37.577V44.25H42.5038V34.227H44.1705V44.25H50.8432V24.25H44.1705ZM52.5005 24.25V44.25H67.5102V35.909H60.8368V40.8757H59.1702V34.227H67.5102V24.25H52.5005ZM59.1702 30.8997V27.5833H60.8368V30.8997H59.1702ZM77.5042 30.8997V24.25H84.1768V29.25L80.8435 32.5863L84.1768 35.9227V44.25H77.5042V34.227H75.8375V44.25H69.1672V35.9227L72.5042 32.5863L69.1672 29.25V24.25H75.8375V30.8997H77.5042Z" fill="#473982"/>
</g>
<defs>
<clipPath id="clip0_2143_946">
<rect width="48.3333" height="20" fill="white" transform="translate(35.8335 24.25)"/>
</clipPath>
</defs>
</svg>
