<svg width="120" height="68" viewBox="0 0 120 68" fill="none" xmlns="http://www.w3.org/2000/svg">
<g clip-path="url(#clip0_15967_3836)">
<path d="M26.011 24.6213L28.4999 23.25C28.5777 23.2109 28.6944 23.25 28.6944 23.3676V30.3806C29.0444 29.9497 29.4721 29.6362 29.9388 29.4012C30.4444 29.1661 30.9499 29.0486 31.4944 29.0486C33.9055 29.0486 35.3444 30.5765 35.3444 33.2015V39.2351C35.3444 39.3135 35.2666 39.3918 35.1888 39.3918H32.6221C32.5444 39.3918 32.4666 39.3135 32.4666 39.2351V33.6325C32.4666 32.2612 31.8444 31.4777 30.5999 31.4777C29.5499 31.4777 28.6555 32.2221 28.6555 33.9068V39.2743C28.6555 39.3527 28.5777 39.431 28.4999 39.431H26.011C25.9332 39.431 25.8555 39.3527 25.8555 39.2743V24.778C25.9721 24.6997 25.9721 24.6605 26.011 24.6213Z" fill="#03484D"/>
<path d="M55.761 24.6213L58.2888 23.25C58.3666 23.2109 58.4833 23.25 58.4833 23.3676L58.4444 30.4198C58.7944 29.9888 59.2221 29.6754 59.6888 29.4403C60.1944 29.2053 60.6999 29.0877 61.2444 29.0877C63.6555 29.0877 65.0944 30.6157 65.0944 33.2407V39.2743C65.0944 39.3527 65.0166 39.431 64.9388 39.431H62.411C62.3332 39.431 62.2555 39.3527 62.2555 39.2743V33.6325C62.2555 32.2612 61.6332 31.4777 60.3888 31.4777C59.3388 31.4777 58.4444 32.2221 58.4444 33.9068V39.2743C58.4444 39.3527 58.3666 39.431 58.2888 39.431H55.7999C55.7221 39.431 55.6444 39.3527 55.6444 39.2743L55.6055 24.778C55.6832 24.6997 55.7221 24.6605 55.761 24.6213Z" fill="#03484D"/>
<path d="M108.999 24.6213L111.488 23.25C111.566 23.2109 111.683 23.25 111.683 23.3676V30.3806C112.033 29.9497 112.46 29.6362 112.927 29.4012C113.433 29.1661 113.938 29.0486 114.483 29.0486C116.894 29.0486 118.333 30.5765 118.333 33.2015V39.2351C118.333 39.3135 118.255 39.3918 118.177 39.3918H115.61C115.533 39.3918 115.455 39.3135 115.455 39.2351V33.6325C115.455 32.2612 114.833 31.4777 113.588 31.4777C112.538 31.4777 111.644 32.2221 111.644 33.9068V39.2743C111.644 39.3527 111.566 39.431 111.488 39.431H108.999C108.922 39.431 108.844 39.3527 108.844 39.2743V24.778C108.922 24.6997 108.922 24.6605 108.999 24.6213Z" fill="#03484D"/>
<path d="M50.4722 30.3807C50.0833 29.9497 49.6167 29.6363 49.1111 29.4012C48.6056 29.1662 48.0222 29.0878 47.4389 29.0878C45.1444 29.0878 42.5 30.7725 42.5 34.3378C42.5 37.9031 45.2611 39.5878 47.4 39.5878C47.9833 39.5878 48.5667 39.4703 49.0722 39.2744C49.6167 39.0393 50.0833 38.6867 50.4722 38.2557V39.196C50.4722 39.5094 50.4333 39.862 50.3167 40.1363C50.2 40.4497 50.0056 40.724 49.7722 40.9591C49.5389 41.1941 49.2667 41.39 48.9556 41.5076C48.6444 41.6251 48.3333 41.7035 47.9833 41.7035C47.4 41.7426 46.8167 41.5859 46.3111 41.2725C46.2333 41.2333 46.1167 41.155 46.0389 41.0766C46 41.0374 45.9222 41.0374 45.8833 41.0766L43.5889 42.3303C43.5111 42.3695 43.4722 42.487 43.55 42.5654C44.5611 43.5841 46.0778 44.2893 47.9833 44.2893C51.4056 44.2893 53.2333 41.9777 53.2333 39.1568V29.0878C53.2333 28.9703 53.1167 28.9311 53.0389 28.9703L50.4722 30.3807ZM47.9444 37.0412C47.5944 37.0412 47.2056 36.9628 46.8944 36.8453C46.5444 36.7277 46.2722 36.4926 46 36.2576C45.7278 36.0225 45.5333 35.7091 45.4167 35.3565C45.3 35.0038 45.2222 34.6512 45.2222 34.2986C45.2222 33.946 45.2611 33.5934 45.4167 33.2408C45.5333 32.9273 45.7667 32.6139 46 32.3397C46.2722 32.1046 46.5444 31.8695 46.8944 31.752C47.2444 31.6344 47.5944 31.5561 47.9444 31.5561C49.4611 31.5561 50.55 32.7706 50.55 34.2594C50.55 35.7874 49.4611 37.0412 47.9444 37.0412Z" fill="#03484D"/>
<path d="M73.8058 39.3918H72.2114C68.9836 39.3918 67.9336 38.2948 67.9336 35.0037V27.0504C67.9336 27.0112 67.9725 26.9328 68.0114 26.9328L70.5003 25.5616C70.578 25.5224 70.6947 25.5616 70.6947 25.6791V29.3228H72.4447C72.5225 29.3228 72.6003 29.4011 72.6003 29.4795V31.6735C72.6003 31.7519 72.5225 31.8302 72.4447 31.8302H70.6947V35.0037C70.6947 36.4925 70.8892 36.806 72.3669 36.806H72.4836C72.5225 36.806 72.5614 36.8451 72.6003 36.8843L73.8836 39.1959C73.9614 39.2743 73.8836 39.3918 73.8058 39.3918Z" fill="#03484D"/>
<path d="M73.9609 34.3377C73.9609 33.319 74.272 32.3004 74.8554 31.4384C75.4387 30.5765 76.2554 29.9104 77.2276 29.5186C78.1998 29.1269 79.2498 29.0093 80.2609 29.2444C81.2721 29.4403 82.2054 29.9496 82.9443 30.694C83.6832 31.4384 84.1887 32.3395 84.3832 33.3582C84.5776 34.3769 84.4609 35.4347 84.0721 36.375C83.6832 37.3153 82.9832 38.138 82.1276 38.7257C81.272 39.3134 80.2609 39.5877 79.2109 39.5877C78.5109 39.5877 77.8109 39.4701 77.1887 39.1959C76.5665 38.9216 75.9832 38.5298 75.4776 38.0597C74.9721 37.5895 74.5832 37.0019 74.3498 36.375C74.0776 35.7089 73.9609 35.0429 73.9609 34.3377ZM81.7776 34.3377C81.7776 33.6716 81.5054 33.0056 81.0387 32.4963C80.5721 31.9869 79.9109 31.7127 79.2109 31.7127C78.8609 31.7127 78.5498 31.791 78.2387 31.9086C77.9276 32.0261 77.6554 32.222 77.4221 32.4963C77.1887 32.7313 76.9943 33.0448 76.8776 33.3582C76.7609 33.6716 76.6832 34.0242 76.7221 34.3377C76.7221 34.6903 76.7609 35.0037 76.8776 35.3172C76.9943 35.6306 77.1887 35.9048 77.4221 36.1791C77.6554 36.4142 77.9276 36.6101 78.2387 36.7668C78.5498 36.8843 78.8998 36.9627 79.2109 36.9627C79.9109 36.9627 80.5721 36.6492 81.0387 36.1791C81.5443 35.7089 81.8165 35.0429 81.7776 34.3377Z" fill="#03484D"/>
<path d="M86.4043 35.474V29.4796C86.4043 29.4012 86.4821 29.3229 86.5599 29.3229H89.0876C89.1654 29.3229 89.2432 29.4012 89.2432 29.4796V35.1214C89.2432 36.4926 89.8654 37.2762 91.1099 37.2762C92.1599 37.2762 93.0543 36.5318 93.0543 34.8471V29.4404C93.0543 29.362 93.1321 29.2837 93.2099 29.2837H95.6987C95.7765 29.2837 95.8543 29.362 95.8543 29.4404V39.2352C95.8543 39.3135 95.7765 39.3919 95.6987 39.3919H93.2099C93.1321 39.3919 93.0543 39.3135 93.0543 39.2352V38.2557C92.7043 38.6867 92.2765 39.0001 91.8099 39.2352C91.3043 39.4703 90.7987 39.5878 90.2543 39.5878C87.8821 39.5878 86.4043 38.0598 86.4043 35.474Z" fill="#03484D"/>
<path d="M37.9114 29.3228H40.4003C40.4781 29.3228 40.5559 29.4011 40.5559 29.4795V39.2742C40.5559 39.3526 40.4781 39.431 40.4003 39.431H37.9114C37.8336 39.431 37.7559 39.3526 37.7559 39.2742V29.4795C37.7947 29.3619 37.8336 29.3228 37.9114 29.3228Z" fill="#03484D"/>
<path d="M39.1546 24.9739C39.388 24.9739 39.6213 25.0131 39.8158 25.0914C40.0102 25.1698 40.2046 25.2873 40.3602 25.444C40.5158 25.6007 40.6324 25.7966 40.7102 25.9925C40.788 26.1884 40.8269 26.4235 40.8269 26.6586C40.8269 26.8937 40.788 27.0895 40.7102 27.3246C40.6324 27.5205 40.5158 27.7164 40.3602 27.8731C40.2046 28.0298 40.0102 28.1474 39.8158 28.2257C39.6213 28.3041 39.388 28.3433 39.1546 28.3433C38.9213 28.3433 38.7269 28.3041 38.4935 28.2257C38.2991 28.1474 38.1046 28.0298 37.9491 27.8731C37.7935 27.7164 37.6769 27.5205 37.5991 27.3246C37.5213 27.1287 37.4824 26.8937 37.4824 26.6586C37.4824 26.4235 37.5213 26.2276 37.5991 25.9925C37.6769 25.7966 37.7935 25.6007 37.9491 25.444C38.1046 25.2873 38.2991 25.1698 38.4935 25.0914C38.7269 25.0131 38.9602 24.9739 39.1546 24.9739Z" fill="#03484D"/>
<path d="M107.561 36.8059C107.639 36.8451 107.678 36.9235 107.639 37.0018C107.445 37.3153 107.211 37.6287 106.978 37.9029C106.9 37.9813 106.822 38.0988 106.706 38.1772C106.667 38.2164 106.628 38.2556 106.55 38.2947C106.472 38.3731 106.356 38.4515 106.278 38.5298C106.239 38.569 106.161 38.6082 106.122 38.6473C105.267 39.235 104.256 39.5876 103.206 39.5876C102.661 39.6268 102.078 39.5485 101.533 39.3917C101.456 39.3526 101.378 39.3526 101.3 39.3134C101.261 39.3134 101.183 39.2742 101.145 39.2742C101.106 39.2742 101.067 39.235 101.028 39.235C100.911 39.1959 100.833 39.1567 100.717 39.1175C100.639 39.0783 100.6 39.0783 100.522 39.0391C100.483 39.0391 100.445 39 100.445 39C100.056 38.8041 99.7057 38.5298 99.3946 38.2556C99.0835 37.9813 98.8113 37.6287 98.5779 37.2761C98.5002 37.1585 98.4224 37.041 98.3835 36.9626C98.3057 36.8451 98.2668 36.7276 98.2279 36.61C97.9557 35.9832 97.8002 35.3171 97.7613 34.6119C97.7224 33.9067 97.839 33.2406 98.0724 32.5746C98.1113 32.457 98.1502 32.3395 98.2279 32.222C98.2668 32.1044 98.3446 31.9869 98.3835 31.8694C98.5779 31.4776 98.8502 31.125 99.1224 30.8115C99.4335 30.4981 99.7446 30.2238 100.095 29.9888C100.133 29.9888 100.172 29.9496 100.172 29.9496C100.211 29.9104 100.289 29.8712 100.328 29.832C100.445 29.7929 100.522 29.7145 100.639 29.6753C100.678 29.6753 100.717 29.6362 100.756 29.6362C100.795 29.597 100.872 29.597 100.911 29.5578C100.989 29.5186 101.067 29.5186 101.106 29.4794C101.65 29.2835 102.195 29.166 102.739 29.166C103.789 29.0876 104.839 29.3619 105.733 29.9104C105.772 29.9496 105.85 29.9888 105.889 30.0279C106.006 30.1063 106.083 30.1847 106.2 30.2238C106.239 30.263 106.317 30.3022 106.356 30.3414C106.434 30.4197 106.55 30.4981 106.628 30.5764C106.861 30.8115 107.095 31.0466 107.25 31.2817C107.289 31.36 107.289 31.4384 107.211 31.4776L105.111 32.6921C105.033 32.7313 104.995 32.7313 104.917 32.6529C104.683 32.3787 104.411 32.1828 104.061 31.9869C103.517 31.7126 102.895 31.6343 102.272 31.791C101.689 31.9477 101.145 32.2612 100.795 32.7705C100.522 33.1231 100.328 33.5932 100.289 34.0242C100.289 34.1026 100.289 34.1417 100.289 34.2201C100.289 34.2985 100.289 34.3768 100.289 34.4552C100.289 34.5335 100.289 34.6119 100.289 34.6903C100.289 34.7686 100.289 34.8078 100.328 34.8862C100.406 35.3563 100.639 35.7481 100.95 36.1007C101.339 36.5709 101.922 36.8451 102.506 36.9626C103.128 37.041 103.711 36.9626 104.256 36.6492C104.45 36.5317 104.645 36.375 104.8 36.2182C104.839 36.1791 104.878 36.1791 104.917 36.1791C105.422 36.2574 107.017 36.6492 107.561 36.8059Z" fill="#03484D"/>
<path d="M7.03199 23.25H17.6487C17.8042 23.25 17.9209 23.3675 17.9209 23.5243V34.0634C17.9209 34.2201 17.8042 34.3377 17.6487 34.3377H6.75977V23.5243C6.75977 23.3675 6.87643 23.25 7.03199 23.25Z" fill="#CAF23A"/>
<path d="M1.93824 34.3376H6.72157V39.0783C6.72157 39.235 6.6049 39.3526 6.44935 39.3526H1.93824C1.78268 39.3526 1.66602 39.235 1.66602 39.0783V34.6511C1.66602 34.4944 1.78268 34.3376 1.93824 34.3376Z" fill="#4FC26B"/>
</g>
<defs>
<clipPath id="clip0_15967_3836">
<rect width="116.667" height="21" fill="white" transform="translate(1.66602 23.25)"/>
</clipPath>
</defs>
</svg>
