<svg width="120" height="68" viewBox="0 0 120 68" fill="none" xmlns="http://www.w3.org/2000/svg">
<g clip-path="url(#clip0_15967_3910)">
<path d="M7.17935 38.9056V37.1627H1.98961V28.5945H0V38.9056H7.17935ZM12.1626 38.5908C12.6031 38.2642 12.9408 37.8195 13.1359 37.309V38.9056H15.0376V33.9268C15.0446 33.4232 14.9024 32.9287 14.6286 32.5048C14.3516 32.0838 13.9583 31.7509 13.4958 31.546C12.9406 31.305 12.3389 31.1878 11.7332 31.2027C11.3725 31.2012 11.0125 31.2325 10.6576 31.2962C10.3223 31.3579 9.99364 31.4511 9.67607 31.5745C9.38257 31.6901 9.09939 31.8301 8.82951 31.9929L8.88677 33.7643C9.31454 33.4791 9.77519 33.2458 10.2588 33.0696C10.7373 32.9044 11.2409 32.8226 11.7475 32.8278C12.1142 32.8054 12.4769 32.9142 12.7699 33.1346C12.8882 33.2298 12.983 33.3507 13.0468 33.4881C13.1106 33.6254 13.1418 33.7755 13.1379 33.9268V34.4387H11.451C10.4381 34.4387 9.63722 34.6513 9.04831 35.0765C8.76377 35.2731 8.53356 35.5377 8.37884 35.8458C8.22412 36.1539 8.14987 36.4957 8.1629 36.8397C8.15755 37.2375 8.2592 37.6296 8.45736 37.9753C8.65984 38.3151 8.95562 38.5907 9.31005 38.7695C9.70434 38.9707 10.1428 39.0713 10.586 39.062C11.1492 39.0797 11.7027 38.9142 12.1626 38.5908ZM10.4449 37.309C10.3404 37.2311 10.2568 37.1288 10.2015 37.0112C10.1462 36.8936 10.121 36.7642 10.128 36.6346C10.1232 36.4756 10.1617 36.3182 10.2394 36.1791C10.3172 36.0401 10.4312 35.9244 10.5697 35.8444C10.9734 35.634 11.4274 35.5378 11.8824 35.5661H13.1093V35.8586C13.1048 36.1208 13.0345 36.3777 12.9048 36.6061C12.7534 36.8784 12.5345 37.1077 12.2689 37.2724C11.9789 37.4596 11.6393 37.5565 11.2935 37.5507C10.9917 37.564 10.6938 37.4791 10.4449 37.309ZM21.0964 38.5664C21.5632 38.1444 21.9048 37.6035 22.084 37.0023V38.9056H24.0164V31.4363H22.084V34.9221C22.0915 35.3798 22.0117 35.8347 21.8489 36.2628C21.7129 36.6284 21.4754 36.9482 21.1638 37.1851C20.8625 37.4049 20.4969 37.5205 20.123 37.5142C19.9405 37.5255 19.7576 37.4985 19.5864 37.4348C19.4151 37.371 19.2594 37.2721 19.1293 37.1445C18.8787 36.8455 18.7541 36.462 18.7816 36.0739V31.4363H16.8513V36.1085C16.8513 37.0754 17.0824 37.8202 17.5445 38.3429C17.7775 38.6078 18.0677 38.817 18.3934 38.9549C18.7192 39.0927 19.0721 39.1558 19.4257 39.1392C20.0349 39.1611 20.6304 38.9569 21.0964 38.5664ZM28.0487 38.9097V35.4198C28.0412 34.9622 28.121 34.5073 28.2839 34.0791C28.4191 33.7148 28.6543 33.3953 28.9628 33.1569C29.2606 32.9363 29.624 32.8205 29.9954 32.8278C30.1776 32.8159 30.3603 32.8423 30.5316 32.9053C30.7028 32.9683 30.8587 33.0665 30.9892 33.1935C31.2395 33.4918 31.364 33.8746 31.3368 34.262V38.9056H33.2835V34.2335C33.2835 33.2666 33.0497 32.5218 32.5821 31.999C32.3477 31.7368 32.0574 31.5298 31.7323 31.3931C31.4072 31.2564 31.0556 31.1935 30.7029 31.2088C30.0921 31.185 29.4948 31.3911 29.0302 31.7857C28.5686 32.2093 28.2296 32.748 28.0487 33.3458V31.4363H26.1184V38.9056L28.0487 38.9097ZM39.7758 39.0702C40.0134 39.035 40.2479 38.9814 40.4771 38.9097C40.6939 38.8406 40.8861 38.7736 41.0906 38.7066L41.1049 36.8905C40.793 37.0462 40.4635 37.1642 40.1234 37.242C39.7829 37.321 39.4343 37.3605 39.0846 37.3598C38.6324 37.3754 38.1835 37.2768 37.78 37.0734C37.4459 36.8984 37.175 36.6243 37.005 36.2893C36.8395 35.9397 36.7537 35.5583 36.7537 35.172C36.7537 34.7858 36.8395 34.4043 37.005 34.0548C37.1764 33.7191 37.4467 33.4435 37.78 33.2646C38.1727 33.0591 38.6124 32.9583 39.056 32.972C39.4214 32.9702 39.7856 33.0146 40.1397 33.1041C40.4722 33.1897 40.7955 33.3074 41.1049 33.4555L41.0906 31.5948C40.8839 31.5135 40.6722 31.4457 40.4567 31.3917C39.975 31.2692 39.4796 31.2078 38.9824 31.2088C38.2049 31.1897 37.4355 31.3688 36.7474 31.7289C36.133 32.0554 35.6246 32.5485 35.2812 33.1508C34.9315 33.7774 34.7531 34.4841 34.7639 35.2004C34.7526 35.9119 34.9333 36.6133 35.2874 37.2318C35.6349 37.826 36.1466 38.3089 36.7617 38.6233C37.4444 38.9659 38.2013 39.1368 38.966 39.121C39.2342 39.1228 39.5022 39.1045 39.7676 39.0661L39.7758 39.0702ZM44.7528 38.9097V35.4198C44.7453 34.9622 44.8251 34.5073 44.988 34.0791C45.1239 33.7135 45.3614 33.3937 45.673 33.1569C45.9686 32.9394 46.3276 32.8239 46.6954 32.8278C46.8799 32.815 47.065 32.841 47.2387 32.904C47.4123 32.967 47.5707 33.0656 47.7035 33.1935C47.9538 33.4918 48.0783 33.8746 48.0511 34.262V38.9056H49.9814V34.2335C49.9814 33.2666 49.7504 32.5218 49.2882 31.999C49.0558 31.7366 48.767 31.5294 48.4431 31.3927C48.1193 31.2559 47.7687 31.1931 47.4172 31.2088C46.804 31.1856 46.2044 31.3914 45.7364 31.7857C45.271 32.2073 44.9296 32.7465 44.7487 33.3458V28.5945H42.8471V38.9056L44.7528 38.9097ZM56.1936 38.9097C57.1705 38.9384 58.139 38.7218 59.0093 38.28C59.7682 37.8767 60.3852 37.2531 60.7781 36.4924C61.198 35.6462 61.405 34.7115 61.3813 33.7683C61.4036 32.8234 61.1967 31.887 60.7781 31.0382C60.3859 30.2734 59.769 29.6451 59.0093 29.2364C58.1404 28.7899 57.1714 28.5704 56.1936 28.5985H52.2041V38.9056L56.1936 38.9097ZM54.1876 37.1627V30.3374H56.1629C57.1567 30.3374 57.9358 30.638 58.5001 31.2393C59.0645 31.8406 59.3474 32.6822 59.3487 33.7643C59.3487 34.8477 59.0659 35.6853 58.5001 36.2771C57.9344 36.8689 57.1553 37.1641 56.1629 37.1627H54.1876ZM66.4402 38.5847C66.8801 38.2575 67.2176 37.813 67.4135 37.3029V38.8995H69.3193V33.9268C69.3293 33.4242 69.1907 32.9298 68.9205 32.5048C68.6404 32.0825 68.2435 31.7496 67.7775 31.546C67.2229 31.3052 66.6219 31.188 66.0169 31.2027C65.6556 31.2012 65.2948 31.2325 64.9393 31.2962C64.6046 31.3579 64.2767 31.4511 63.9598 31.5745C63.6655 31.6897 63.3816 31.8297 63.1112 31.9929L63.1705 33.7643C63.598 33.4787 64.0587 33.2454 64.5426 33.0696C65.021 32.9042 65.5247 32.8224 66.0312 32.8278C66.398 32.8049 66.7609 32.9138 67.0536 33.1346C67.1722 33.2297 67.2673 33.3505 67.3314 33.4879C67.3956 33.6253 67.4272 33.7754 67.4237 33.9268V34.4387H65.7429C64.7205 34.4387 63.9291 34.6418 63.3382 35.0765C63.0541 35.2735 62.8244 35.5381 62.6701 35.8462C62.5158 36.1543 62.4417 36.4959 62.4548 36.8397C62.4494 37.2375 62.5511 37.6296 62.7493 37.9753C62.949 38.3144 63.242 38.59 63.5938 38.7695C63.9873 38.9709 64.4252 39.0714 64.8677 39.062C65.435 39.0823 65.9932 38.9167 66.4565 38.5908L66.4402 38.5847ZM64.7225 37.3029C64.6196 37.2253 64.5374 37.1238 64.4832 37.0072C64.429 36.8907 64.4045 36.7627 64.4117 36.6346C64.4069 36.4756 64.4454 36.3182 64.5231 36.1791C64.6009 36.0401 64.715 35.9244 64.8534 35.8444C65.257 35.6338 65.7111 35.5375 66.1661 35.5661H67.393V35.8586C67.3875 36.1207 67.3173 36.3774 67.1886 36.6061C67.0376 36.8781 66.8195 37.1074 66.5547 37.2724C66.2635 37.4603 65.9223 37.5572 65.5752 37.5507C65.274 37.564 64.9767 37.4791 64.7286 37.309L64.7225 37.3029ZM73.2044 38.9056V35.7225C73.2044 34.8937 73.3803 34.2599 73.734 33.8272C73.9044 33.6147 74.1228 33.4449 74.3714 33.3316C74.6201 33.2183 74.892 33.1648 75.1654 33.1752C75.4349 33.173 75.7032 33.212 75.9608 33.291V31.4567C75.8381 31.419 75.7121 31.3925 75.5846 31.3774C75.4489 31.361 75.3123 31.3536 75.1756 31.3551C74.9496 31.3532 74.7257 31.3973 74.5175 31.4847C74.3093 31.572 74.1213 31.7007 73.9651 31.8629C73.6006 32.246 73.339 32.7141 73.2044 33.2239V31.4363H71.272V38.9056H73.2044ZM79.116 38.9056V36.4883L79.8092 35.8302L82.0585 38.9056H84.3282L81.1158 34.5403L84.2689 31.4363H81.8519L79.1098 34.0974V28.6128H77.2081V38.9056H79.116ZM87.4465 38.9056V28.5945H85.5285V38.9056H87.4465ZM90.3809 41.6886C90.9901 41.7139 91.5937 41.5636 92.1189 41.2559C92.5702 40.9675 92.9437 40.4671 93.2395 39.7547L96.6973 31.4363H94.722L92.6772 36.6651L90.6099 31.4363H88.6346L91.7304 38.8914L91.5668 39.2713C91.4915 39.4942 91.3487 39.6886 91.1579 39.8279C90.9235 39.9614 90.6545 40.0229 90.3849 40.0046H88.7798V41.6886H90.3809Z" fill="black"/>
<path d="M110.849 42.95C110.773 42.9502 110.697 42.929 110.632 42.8887C110.567 42.8485 110.515 42.7909 110.481 42.7225C110.448 42.6582 110.435 42.586 110.441 42.5142C110.448 42.4424 110.474 42.3738 110.518 42.3163L114.869 36.3644L107.25 39.4561C107.199 39.4784 107.143 39.4902 107.087 39.4907C106.999 39.4902 106.913 39.4615 106.843 39.4088C106.772 39.3561 106.721 39.2822 106.696 39.1981C106.671 39.116 106.674 39.0279 106.704 38.9474C106.734 38.867 106.79 38.7987 106.864 38.7533L113.565 34.8226L101.766 34.1482C101.671 34.1317 101.585 34.0825 101.524 34.0093C101.462 33.9361 101.428 33.8436 101.428 33.748C101.428 33.6524 101.462 33.5599 101.524 33.4867C101.585 33.4135 101.671 33.3643 101.766 33.3478L113.571 32.6755L106.868 28.7448C106.795 28.6993 106.738 28.6311 106.708 28.5506C106.678 28.4702 106.675 28.3821 106.7 28.2999C106.725 28.2162 106.776 28.1426 106.846 28.0899C106.916 28.0372 107.001 28.0083 107.089 28.0074C107.145 28.0072 107.201 28.0197 107.252 28.044L114.873 31.1398L110.522 25.1899C110.478 25.1324 110.452 25.0638 110.445 24.992C110.439 24.9202 110.453 24.848 110.485 24.7837C110.518 24.7144 110.57 24.6558 110.634 24.6145C110.699 24.5732 110.774 24.5508 110.851 24.55C110.904 24.5504 110.957 24.5614 111.006 24.5823C111.055 24.6032 111.099 24.6337 111.135 24.6719L119.808 33.2849C119.931 33.4075 120 33.5737 120 33.747C120 33.9203 119.931 34.0865 119.808 34.2091L111.131 42.8322C111.095 42.8695 111.051 42.8992 111.002 42.9194C110.954 42.9397 110.902 42.9501 110.849 42.95Z" fill="black"/>
</g>
<defs>
<clipPath id="clip0_15967_3910">
<rect width="120" height="18.4" fill="white" transform="translate(0 24.55)"/>
</clipPath>
</defs>
</svg>
