<svg width="120" height="68" viewBox="0 0 120 68" fill="none" xmlns="http://www.w3.org/2000/svg">
<g clip-path="url(#clip0_15967_3837)">
<g clip-path="url(#clip1_15967_3837)">
<path d="M13.2 20.3501C5.94286 20.3501 0 26.2233 0 33.465V33.522C0 40.8207 5.94286 46.6939 13.2 46.6939C20.5143 46.6939 26.4 40.7637 26.4 33.522C26.4572 26.2803 20.5143 20.3501 13.2 20.3501ZM9.88572 21.6046C10.8571 21.3195 11.9429 21.1484 13.0286 21.1484C13.0857 21.1484 13.1429 21.1484 13.2 21.1484C13.2571 21.1484 13.3143 21.1484 13.3714 21.1484C15.0857 21.2054 16.5143 22.2888 17.1429 23.7714C17.2571 24.1135 17.3714 24.3986 17.4286 24.7407C17.4857 24.9118 17.4857 25.1399 17.4857 25.368C17.4857 26.3373 17.1429 27.1927 16.6286 27.9339C16.0571 27.5918 15.4286 27.3637 14.8 27.1927C15.3143 26.7365 15.6 26.1092 15.6 25.425C15.6 24.9118 15.4286 24.4556 15.1429 24.0565C14.6857 23.4863 14 23.0871 13.2 23.0871C11.8286 23.0871 10.5143 23.3722 9.25715 23.8284C8.91429 23.9424 8.57143 24.1135 8.28572 24.2846C6.4 25.2539 4.85714 26.7935 3.88572 28.6752C2.85714 28.9033 1.94286 29.4735 1.25714 30.2718C2.45714 26.0522 5.71429 22.745 9.88572 21.6046ZM18.2857 25.1969C19.6571 25.9952 20.8 27.1356 21.6 28.5041C21.5429 28.5041 21.4857 28.5041 21.4286 28.5041C20.2857 28.5041 19.2571 28.8463 18.4571 29.4735C18.1143 29.0744 17.7714 28.6752 17.3143 28.3331C17.9429 27.4778 18.2857 26.4514 18.2857 25.368C18.2857 25.311 18.2857 25.2539 18.2857 25.1969ZM22.8 31.5833C22.4 31.2982 21.9429 31.1271 21.4286 31.1271C20.6857 31.1271 20.0572 31.4122 19.6572 31.9254C19.2572 32.3246 19.0857 32.8948 19.0857 33.522C19.0857 34.5484 18.8 35.5178 18.3429 36.3731C18.2286 36.6012 18.0571 36.8293 17.8857 37.0573C17.6 37.4565 17.2 37.7986 16.8571 38.0837C16.4 37.6276 15.8286 37.2284 15.1429 37.0003C15.8286 36.6582 16.4 36.088 16.8 35.3467C17.0857 34.8335 17.2571 34.1493 17.2571 33.522C17.2571 32.4386 17.6571 31.4122 18.3429 30.671C18.5143 30.4999 18.7429 30.2718 18.9143 30.1007C19.6571 29.5875 20.5143 29.2454 21.4857 29.2454C21.7143 29.2454 21.9429 29.2454 22.1143 29.3024C22.4 30.0437 22.6286 30.785 22.8 31.5833ZM22.9714 33.465V33.522V33.579C22.9143 34.4344 22.2286 35.1186 21.3714 35.1186C20.5143 35.1186 19.7714 34.3773 19.7714 33.522C19.7714 32.6667 20.5143 31.9254 21.3714 31.9254C22.2286 31.9254 22.9714 32.6097 22.9714 33.465ZM17.3143 38.711C17.7143 38.3688 18.1143 38.0267 18.4571 37.5705C19.3143 38.1978 20.3429 38.5399 21.4286 38.5399C21.4857 38.5399 21.5429 38.5399 21.6 38.5399C20.8 39.9084 19.6571 41.0488 18.2857 41.8471C18.2857 41.7901 18.2857 41.7331 18.2857 41.6761C18.2857 40.5927 17.8857 39.5093 17.3143 38.711ZM14.8 39.9084C14.4 39.5093 13.8286 39.3382 13.2 39.3382C12.1714 39.3382 11.2 39.0531 10.3429 38.5969C10.1143 38.4829 9.88572 38.3118 9.65715 38.1407C9.25715 37.8556 8.91429 37.4565 8.62857 37.1144C9.08572 36.6582 9.48572 36.088 9.77143 35.4037C10.1143 36.088 10.6857 36.6582 11.4286 37.0573C11.9429 37.3424 12.6286 37.5135 13.2571 37.5135C14.3429 37.5135 15.3714 37.9127 16.1143 38.5969C16.2857 38.768 16.5143 38.9961 16.6857 39.1671C17.2 39.9084 17.5429 40.7637 17.5429 41.7331C17.5429 41.9612 17.5429 42.1322 17.4857 42.3603C16.7429 42.7024 16 42.9305 15.2 43.1016C15.4857 42.7025 15.6571 42.2463 15.6571 41.7331C15.6 40.9918 15.3143 40.3646 14.8 39.9084ZM14.8 41.6761C14.8 42.4744 14.1714 43.1586 13.3714 43.2727C13.3143 43.2727 13.2571 43.2727 13.2 43.2727C13.1429 43.2727 13.0857 43.2727 13.0286 43.2727C12.2286 43.2156 11.6 42.5314 11.6 41.6761C11.6 40.8207 12.3429 40.0795 13.2 40.0795C14.1143 40.1365 14.8 40.8207 14.8 41.6761ZM8.17143 41.8471C6.8 41.0488 5.65714 39.8514 4.85714 38.5399C4.91429 38.5399 4.97143 38.5399 5.02857 38.5399C6.17143 38.5399 7.2 38.1978 8 37.5705C8.34286 37.9697 8.74286 38.3688 9.14286 38.711C8.51429 39.5663 8.17143 40.5927 8.17143 41.6761C8.17143 41.7901 8.17143 41.8471 8.17143 41.8471ZM5.02857 35.9169C5.71429 35.9169 6.34286 35.6318 6.8 35.1186L6.85715 35.0616C6.91429 35.0046 6.91429 34.9476 6.97143 34.8905L7.02857 34.8335C7.02857 34.8335 7.02857 34.7765 7.08572 34.7765C7.08572 34.7195 7.14286 34.7195 7.14286 34.6624C7.14286 34.6624 7.14286 34.6054 7.2 34.6054C7.2 34.5484 7.2 34.5484 7.25715 34.4914V34.4344V34.3773C7.25715 34.3203 7.25715 34.2633 7.31429 34.2633V34.2063V34.1493V34.0922V34.0352C7.31429 33.9782 7.31429 33.9782 7.31429 33.9212V33.8641C7.31429 33.8071 7.31429 33.8071 7.31429 33.7501C7.31429 32.7237 7.6 31.7544 8.05715 30.899C8.17143 30.671 8.34286 30.4429 8.51429 30.2148C8.8 29.8156 9.14286 29.4735 9.54286 29.1884C10 29.6446 10.5714 30.0437 11.2571 30.3288C10.5714 30.671 10 31.2412 9.6 31.9824C9.31429 32.4956 9.14286 33.1229 9.14286 33.8071C9.14286 34.8905 8.68572 35.9169 8 36.6582C7.82857 36.8293 7.6 37.0573 7.42857 37.1714C6.68572 37.6846 5.82857 38.0267 4.91429 38.0267C4.68572 38.0267 4.45714 38.0267 4.22857 37.9697C3.88572 37.2284 3.65714 36.4871 3.48572 35.6888C4.05714 35.7459 4.51429 35.9169 5.02857 35.9169ZM3.42857 33.522C3.42857 33.465 3.42857 33.465 3.42857 33.408C3.48572 32.5527 4.17143 31.8684 5.02857 31.8684C5.88572 31.8684 6.62857 32.6097 6.62857 33.465C6.62857 34.3203 5.88572 35.0046 5.02857 35.0046C4.17143 35.1186 3.48572 34.4344 3.42857 33.522ZM9.14286 28.3901C8.74286 28.7322 8.34286 29.0744 8.05715 29.4735C7.2 28.8463 6.17143 28.5041 5.02857 28.5041C4.97143 28.5041 4.91429 28.5041 4.85714 28.5041C5.65714 27.1927 6.8 26.0522 8.17143 25.1969C8.17143 25.2539 8.17143 25.311 8.17143 25.368C8.17143 26.5084 8.51429 27.5348 9.14286 28.3901ZM11.6571 27.1927C12.0571 27.5918 12.6286 27.7629 13.2571 27.7629C14.2857 27.7629 15.2571 28.048 16.1143 28.5041C16.3429 28.6182 16.5714 28.7893 16.8 28.9603C17.2 29.2454 17.5429 29.6446 17.8286 29.9867C17.3714 30.4429 16.9714 31.0131 16.7429 31.6973C16.4 31.0131 15.8286 30.4429 15.0857 30.0437C14.5714 29.7586 13.8857 29.5875 13.2571 29.5875C12.1714 29.5875 11.1429 29.1884 10.4 28.5041C10.2286 28.3331 10 28.105 9.82858 27.9339C9.31429 27.1927 8.97143 26.3373 8.97143 25.368C8.97143 25.1399 8.97143 24.9118 9.02857 24.7407C9.77143 24.3986 10.5143 24.1705 11.3143 23.9995C11.0286 24.3986 10.8571 24.9118 10.8571 25.425C10.8 26.1092 11.1429 26.7365 11.6571 27.1927ZM11.6 25.368C11.6 24.5127 12.2857 23.8284 13.1429 23.7714H13.2H13.2571C14.1143 23.8284 14.8 24.5127 14.8 25.368C14.8 26.2233 14.0571 26.9646 13.2 26.9646C12.3429 26.9646 11.6 26.2803 11.6 25.368ZM16.3429 33.522C16.3429 35.2327 14.9714 36.6582 13.2 36.6582C11.4286 36.6582 10.0571 35.2897 10.0571 33.522C10.0571 31.8114 11.4857 30.4429 13.2 30.4429C14.9143 30.4429 16.3429 31.8114 16.3429 33.522ZM1.25714 36.8293C0.971429 35.8599 0.857143 34.7765 0.8 33.7501C0.8 33.6931 0.8 33.6361 0.8 33.579V33.522C0.8 33.465 0.8 33.408 0.8 33.351C0.857143 31.6403 1.94286 30.2148 3.42857 29.5875C3.77143 29.4735 4.05714 29.3595 4.4 29.3024C4.57143 29.2454 4.8 29.2454 5.02857 29.2454C6 29.2454 6.85715 29.5875 7.6 30.1007C7.25715 30.671 7.02857 31.2982 6.85715 31.9254C6.4 31.4122 5.77143 31.1271 5.08572 31.1271C4.57143 31.1271 4.11429 31.2982 3.71429 31.5833C3.14286 32.0395 2.74286 32.7237 2.74286 33.465V33.522C2.74286 34.8905 3.02857 36.202 3.48572 37.3995C3.6 37.7416 3.77143 38.0837 3.94286 38.3688C4.91429 40.2505 6.51429 41.8471 8.4 42.8165C8.62857 43.8429 9.2 44.7552 10 45.4395C5.71429 44.3561 2.4 40.9918 1.25714 36.8293ZM16.5714 45.4965C15.6 45.7816 14.5143 45.9527 13.4286 45.9527C13.3714 45.9527 13.3143 45.9527 13.2571 45.9527C13.2 45.9527 13.1429 45.9527 13.0857 45.9527C11.3714 45.8956 9.94286 44.8122 9.31429 43.3297C9.2 42.9876 9.08572 42.7024 9.02857 42.3603C8.97143 42.1893 8.97143 41.9612 8.97143 41.7331C8.97143 40.7637 9.31429 39.9084 9.82858 39.1671C10.4 39.5093 11.0286 39.7373 11.6571 39.9084C11.1429 40.3076 10.8571 40.9918 10.8571 41.6761C10.8571 42.1893 11.0286 42.6454 11.3143 43.0446C11.7143 43.6148 12.3429 43.9569 13.0286 44.0139C13.0857 44.0139 13.1429 44.0139 13.2 44.0139C13.2571 44.0139 13.3143 44.0139 13.3714 44.0139C14.6857 44.0139 15.9429 43.7288 17.0857 43.2727C17.4286 43.1586 17.7714 42.9876 18.0571 42.8165C19.9429 41.8471 21.4857 40.2505 22.5143 38.3688C23.5429 38.1407 24.4572 37.5705 25.1429 36.7722C24.0572 41.0488 20.7429 44.3561 16.5714 45.4965ZM25.6572 33.522C25.6572 33.579 25.6572 33.6361 25.6572 33.6931C25.6 35.4037 24.5143 36.8293 23.0286 37.4565C22.6857 37.5705 22.4 37.6846 22.0571 37.7416C21.8857 37.7986 21.6572 37.7986 21.4286 37.7986C20.4572 37.7986 19.6 37.4565 18.9143 36.9433C19.2571 36.3731 19.4857 35.7459 19.6572 35.1186C20.1143 35.6318 20.7429 35.9169 21.4286 35.9169C21.9429 35.9169 22.4 35.7459 22.8 35.4607C23.3714 35.0046 23.7714 34.3203 23.7714 33.522C23.7714 32.1535 23.4857 30.842 23.0286 29.5875C22.9143 29.2454 22.7429 28.9033 22.5714 28.6182C21.6 26.7365 20 25.1969 18.1143 24.1705C17.8857 23.1441 17.3143 22.2318 16.5143 21.5475C20.6857 22.688 24 25.9952 25.1429 30.1578C25.4286 31.1271 25.6 32.2105 25.6 33.2939C25.6572 33.408 25.6572 33.465 25.6572 33.522Z" fill="#1F1F30"/>
<path fill-rule="evenodd" clip-rule="evenodd" d="M38.3438 28.2189H41.0866L43.658 35.1755H43.7152L46.2295 28.2189H48.9723V38.0266H47.258V30.1576L44.2295 38.0266H43.0295L40.1152 30.1576V38.0266H38.458V28.2189H38.3438ZM53.7152 28.2189H60.2295V29.7585H55.4866V32.2674H60.0009V33.75H55.4866V36.544H60.5152V38.0266H53.7152V28.2189ZM68.0009 32.4385C68.2295 32.4385 68.5152 32.4385 68.7438 32.3815C68.9723 32.3244 69.2009 32.2674 69.4295 32.1534C69.6009 32.0393 69.7723 31.9253 69.9438 31.6972C70.0581 31.5262 70.1152 31.241 70.1152 30.9559C70.1152 30.6708 70.0581 30.4427 69.9438 30.2717C69.8295 30.1006 69.6581 29.9866 69.4866 29.8725C69.3152 29.7585 69.0866 29.7015 68.8581 29.6444C68.6295 29.5874 68.4009 29.5874 68.1723 29.5874H66.5723V32.3244H68.0009V32.4385ZM64.8009 28.2189H68.2295C68.6866 28.2189 69.1438 28.2759 69.6009 28.39C70.0581 28.504 70.4009 28.6181 70.7438 28.8461C71.0866 29.0742 71.3723 29.3593 71.5438 29.7015C71.7723 30.0436 71.8295 30.4998 71.8295 31.013C71.8295 31.6972 71.6009 32.3245 71.2009 32.7236C70.8009 33.1798 70.2295 33.4649 69.5438 33.6359L72.1723 37.9696H70.0581L67.7723 33.807H66.5152V38.0266H64.7438V28.2189H64.8009ZM83.2581 30.4998C82.9724 30.1576 82.6866 29.8725 82.2295 29.7585C81.8295 29.5874 81.4295 29.5304 81.0295 29.5304C80.5152 29.5304 80.0581 29.6444 79.6581 29.8155C79.2581 29.9866 78.8581 30.2717 78.5723 30.5568C78.2866 30.8989 78.0581 31.241 77.8866 31.6972C77.7152 32.1534 77.6581 32.6096 77.6581 33.1227C77.6581 33.6359 77.7152 34.1491 77.8866 34.6053C78.0581 35.0615 78.2866 35.4036 78.5723 35.7457C78.8581 36.0879 79.2009 36.3159 79.6009 36.487C80.0009 36.6581 80.4581 36.7721 80.9723 36.7721C81.4866 36.7721 81.9438 36.6581 82.4009 36.487C82.8009 36.2589 83.1438 36.0308 83.3723 35.6887L84.8009 36.6581C84.3438 37.2283 83.8295 37.6274 83.2009 37.9125C82.5724 38.1976 81.8295 38.3687 80.9723 38.3687C80.2295 38.3687 79.4866 38.2547 78.8581 37.9696C78.2295 37.7415 77.6581 37.3423 77.2009 36.8862C76.7438 36.43 76.4009 35.8598 76.1152 35.2325C75.8295 34.6053 75.7152 33.921 75.7152 33.1227C75.7152 32.3244 75.8295 31.6402 76.1152 31.013C76.4009 30.3857 76.7438 29.8155 77.2581 29.4164C77.7152 28.9602 78.2866 28.6181 78.9152 28.39C79.5438 28.1619 80.2866 28.0479 81.0295 28.0479C81.3724 28.0479 81.6581 28.1049 82.0009 28.1619C82.3438 28.2189 82.6866 28.333 82.9724 28.447C83.3152 28.561 83.6009 28.7321 83.8866 28.9032C84.1724 29.0742 84.4009 29.3023 84.5724 29.5874L83.2581 30.4998ZM96.2295 34.4342C96.2295 35.0045 96.1152 35.5747 95.9438 36.0308C95.7152 36.487 95.4866 36.8862 95.0866 37.2283C94.7438 37.5704 94.3438 37.7985 93.8295 37.9696C93.3724 38.1406 92.8009 38.2547 92.2866 38.2547C91.7724 38.2547 91.2009 38.1406 90.7438 37.9696C90.2866 37.7985 89.8295 37.5134 89.4866 37.2283C89.1438 36.8862 88.8581 36.487 88.6295 36.0308C88.4009 35.5747 88.3438 35.0045 88.3438 34.4342V28.2189H90.1152V34.3772C90.1152 34.6623 90.1724 34.9474 90.2295 35.2325C90.2866 35.5176 90.4009 35.7457 90.5724 35.9738C90.7438 36.2019 90.9724 36.373 91.2581 36.487C91.5438 36.601 91.8866 36.7151 92.2866 36.7151C92.6866 36.7151 93.0295 36.6581 93.3152 36.487C93.6009 36.3159 93.8295 36.1449 94.0009 35.9738C94.1724 35.7457 94.2866 35.5176 94.3438 35.2325C94.4009 34.9474 94.4581 34.6623 94.4581 34.3772V28.2189H96.2295V34.4342ZM104.115 32.4385C104.344 32.4385 104.63 32.4385 104.858 32.3815C105.087 32.3244 105.315 32.2674 105.544 32.1534C105.715 32.0393 105.887 31.9253 106.058 31.6972C106.172 31.5262 106.23 31.241 106.23 30.9559C106.23 30.6708 106.172 30.4427 106.058 30.2717C105.944 30.1006 105.772 29.9866 105.601 29.8725C105.43 29.7585 105.201 29.7015 104.972 29.6444C104.744 29.5874 104.515 29.5874 104.287 29.5874H102.687V32.3244H104.115V32.4385ZM100.972 28.2189H104.401C104.858 28.2189 105.315 28.2759 105.772 28.39C106.23 28.504 106.572 28.6181 106.915 28.8461C107.258 29.0742 107.544 29.3593 107.715 29.7015C107.944 30.0436 108.001 30.4998 108.001 31.013C108.001 31.6972 107.772 32.3245 107.372 32.7236C106.972 33.1798 106.401 33.4649 105.715 33.6359L108.344 37.9696H106.23L103.944 33.807H102.687V38.0266H100.915V28.2189H100.972ZM114.572 33.75L110.858 28.2189H112.972L115.43 32.3244L117.944 28.2189H119.944L116.23 33.75V38.0266H114.458V33.75H114.572Z" fill="#1F1F30"/>
</g>
</g>
<defs>
<clipPath id="clip0_15967_3837">
<rect width="120" height="67.5" fill="white"/>
</clipPath>
<clipPath id="clip1_15967_3837">
<rect width="120" height="26.8" fill="white" transform="translate(0 20.3501)"/>
</clipPath>
</defs>
</svg>
