<svg width="120" height="68" viewBox="0 0 120 68" fill="none" xmlns="http://www.w3.org/2000/svg">
<g clip-path="url(#clip0_15967_3728)">
<path d="M104.367 30.45V29.2C104.367 29 104.168 28.8 103.968 28.8H99.5737V26.4C99.5737 26.2 99.3739 26 99.1742 26H97.5264C97.2767 26 97.1269 26.2 97.1269 26.4V28.8H94.5303C94.2807 28.8 94.1309 29 94.1309 29.2V30.45C94.1309 30.65 94.3306 30.85 94.5303 30.85H97.1269V34.55C97.1269 37.4 98.4751 38.7 101.321 38.7H103.668C103.918 38.7 104.068 38.5 104.068 38.3V37.05C104.068 36.85 103.868 36.65 103.668 36.65H101.721C100.173 36.65 99.6236 36.05 99.6236 34.5V30.8H104.018C104.168 30.8 104.367 30.65 104.367 30.45Z" fill="#0F1626"/>
<path d="M91.1856 25H88.9385C88.6889 25 88.5391 25.2 88.5391 25.4V27C88.5391 27.2 88.7388 27.4 88.9385 27.4H91.1856C91.4352 27.4 91.585 27.2 91.585 27V25.4C91.585 25.15 91.3853 25 91.1856 25Z" fill="#0F1626"/>
<path d="M91.484 36.7V29.2C91.484 29 91.2843 28.8 91.0845 28.8H85.9913C85.7416 28.8 85.5918 29 85.5918 29.2V30.45C85.5918 30.65 85.7915 30.85 85.9913 30.85H88.9873V36.7H85.9913C85.7416 36.7 85.5918 36.9 85.5918 37.1V38.35C85.5918 38.55 85.7915 38.75 85.9913 38.75H94.5799C94.8296 38.75 94.9794 38.55 94.9794 38.35V37.1C94.9794 36.9 94.7796 36.7 94.5799 36.7H91.484Z" fill="#0F1626"/>
<path d="M83.6946 36.7H81.098V25.4C81.098 25.2 80.8983 25 80.6986 25H75.6553C75.4056 25 75.2558 25.2 75.2558 25.4V26.65C75.2558 26.85 75.4555 27.05 75.6553 27.05H78.6513V36.7H75.3057C75.0561 36.7 74.9062 36.9 74.9062 37.1V38.35C74.9062 38.55 75.106 38.75 75.3057 38.75H83.6946C83.9443 38.75 84.0941 38.55 84.0941 38.35V37.1C84.0941 36.85 83.9443 36.7 83.6946 36.7Z" fill="#0F1626"/>
<path d="M70.0126 28.6001C69.1637 28.6001 68.5146 28.8001 68.0652 29.2501L67.466 29.8001H66.9167L66.717 29.0501C66.667 28.9001 66.5172 28.7501 66.3175 28.7501H65.169C64.9193 28.7501 64.7695 28.9501 64.7695 29.1501V42.1001C64.7695 42.3001 64.9693 42.5001 65.169 42.5001H66.8168C67.0665 42.5001 67.2163 42.3001 67.2163 42.1001V39.3001L67.0166 37.8001L67.5658 37.6501L68.165 38.2001C68.6144 38.6501 69.2136 38.8501 70.0625 38.8501C72.5093 38.8501 74.0073 37.1501 74.0073 33.7001C73.9574 30.3001 72.5093 28.6001 70.0126 28.6001ZM69.1637 36.8501C67.9154 36.8501 67.2163 36.2001 67.2163 35.0001V32.6001C67.2163 31.4001 67.9154 30.7501 69.1637 30.7501C70.7117 30.7501 71.3608 31.7001 71.3608 33.8001C71.4107 35.8501 70.7117 36.8501 69.1637 36.8501Z" fill="#0F1626"/>
<path d="M57.7295 28.6001C54.5337 28.6001 52.8359 30.3001 52.8359 33.7501C52.8359 37.2001 54.5337 38.9001 57.6296 38.9001C60.0264 38.9001 61.6243 37.9001 62.0238 36.1501C62.0737 35.9001 61.874 35.7001 61.6243 35.7001H60.1263C59.9765 35.7001 59.8267 35.8001 59.7268 35.9501C59.4771 36.7001 58.7281 37.0501 57.6795 37.0501C56.0816 37.0501 55.3326 36.2001 55.2328 34.1501H62.1236C62.573 30.3501 61.0251 28.6001 57.7295 28.6001ZM55.3826 32.6001C55.6322 31.1001 56.3812 30.4001 57.7295 30.4001C59.1775 30.4001 59.8766 31.1501 59.8766 32.6001H55.3826Z" fill="#0F1626"/>
<path d="M47.9415 29.2501L47.3923 29.8001H46.843L46.6433 29.1001C46.5933 28.9001 46.4435 28.8001 46.2438 28.8001H42.5986C42.3489 28.8001 42.1991 29.0001 42.1991 29.2001V30.4501C42.1991 30.6501 42.3989 30.8501 42.5986 30.8501H44.7458V36.7001H42.2491C41.9994 36.7001 41.8496 36.9001 41.8496 37.1001V38.3501C41.8496 38.5501 42.0493 38.7501 42.2491 38.7501H50.0887C50.3384 38.7501 50.4882 38.5501 50.4882 38.3501V37.1001C50.4882 36.9001 50.2884 36.7001 50.0887 36.7001H47.1925V32.5501C47.1925 31.4001 47.8916 30.8001 49.1899 30.8001H51.337C51.5867 30.8001 51.7365 30.6001 51.7365 30.4001V29.0001C51.7365 28.8001 51.5368 28.6001 51.337 28.6001H50.0388C49.1899 28.6001 48.4409 28.8001 47.9415 29.2501Z" fill="#0F1626"/>
<path d="M15.6348 24.55C15.6348 23.85 16.234 23.25 16.933 23.25H23.025C23.724 23.25 24.3233 23.85 24.3233 24.55V30.25H16.933C16.234 30.25 15.6348 29.65 15.6348 28.95V24.55Z" fill="#F26207"/>
<path d="M24.373 30.25H31.8132C32.5123 30.25 33.1115 30.85 33.1115 31.55V35.95C33.1115 36.65 32.5123 37.25 31.8132 37.25H24.373V30.25Z" fill="#F26207"/>
<path d="M15.6348 38.55C15.6348 37.85 16.234 37.25 16.933 37.25H24.3732V42.95C24.3732 43.65 23.774 44.25 23.0749 44.25H16.933C16.234 44.25 15.6348 43.65 15.6348 42.95V38.55Z" fill="#F26207"/>
</g>
<defs>
<clipPath id="clip0_15967_3728">
<rect width="88.7324" height="21" fill="white" transform="translate(15.6348 23.25)"/>
</clipPath>
</defs>
</svg>
