<svg width="120" height="68" viewBox="0 0 120 68" fill="none" xmlns="http://www.w3.org/2000/svg">
<g clip-path="url(#clip0_15967_3908)">
<path d="M40.5792 44.2096L28.6641 39.0361H36.3688L40.5792 44.2096Z" fill="#1C1C1C"/>
<path d="M33.1719 33.7638L41.6174 44.1108L38.2589 28.3311L33.1719 33.7638Z" fill="#1C1C1C"/>
<path d="M22.0586 22.75L32.5661 33.1587L37.6532 27.7259L22.0586 22.75Z" fill="#1C1C1C"/>
<path d="M42.2841 22.8611L38.3453 27.0715L34.5547 25.8491L42.2841 22.8611Z" fill="#1C1C1C"/>
<path d="M43.1235 23.2192L40.8887 25.4911L46.9759 25.5899L43.1235 23.2192Z" fill="#1C1C1C"/>
<path d="M55.582 29.8992H57.9897V39.6165H55.582V29.8992Z" fill="#1C1C1C"/>
<path d="M69.7073 29.899V38.2458C69.7073 42.6167 67.633 44.5059 64.3857 44.5059C62.4595 44.5182 60.7062 43.4069 59.8913 41.6536L61.8421 40.7399C62.3237 41.703 63.3115 42.308 64.3857 42.3203C66.2131 42.3203 67.349 41.2338 67.349 38.468V38.3198C66.6823 39.32 65.3611 39.8139 64.2005 39.8139C61.7063 39.8139 59.5332 37.8383 59.5332 34.7391C59.5332 31.6153 61.6816 29.6768 64.1881 29.6768C65.4105 29.6768 66.6823 30.1583 67.3614 31.1584V29.899H69.7073ZM67.312 34.7268C67.3367 33.2081 66.1143 31.961 64.5956 31.9363H64.5709C63.1016 31.9363 61.9162 33.0969 61.9162 34.7268C61.9162 36.3566 63.1139 37.5543 64.5709 37.5543C66.0155 37.5543 67.312 36.4307 67.312 34.7268Z" fill="#1C1C1C"/>
<path d="M87.1157 34.1589V39.6164H84.7203V34.3441C84.7203 32.7884 83.9054 32.0105 82.7818 32.0105C81.3866 32.0105 80.5099 33.0477 80.6211 34.801L80.5964 34.7145V39.6041H78.1886V34.3441C78.1886 32.7884 77.3737 32.0105 76.3366 32.0105C75.213 32.0105 74.0894 32.6402 74.0894 34.4799V39.6041H71.6816V29.8991H74.0894V31.566C74.4474 30.3436 75.7686 29.6892 76.9786 29.6892C78.3985 29.6892 79.5592 30.356 80.1272 31.603C80.8927 30.0596 82.4114 29.6892 83.3992 29.6892C85.8192 29.6892 87.1157 31.3314 87.1157 34.1589Z" fill="#1C1C1C"/>
<path d="M45.9004 36.6035H48.2958C48.2958 37.2703 48.9131 37.8876 49.9873 37.8876C50.9998 37.8876 51.6666 37.4555 51.6666 36.8258C51.6666 36.2825 51.2221 36.0356 50.4565 35.8627L49.086 35.5293C46.777 34.949 46.1844 33.776 46.1844 32.5536C46.1844 31.0349 47.7648 29.7014 50.012 29.7014C51.8394 29.7014 53.9138 30.5534 53.8891 32.7388H51.4443C51.4443 32.0474 50.8023 31.6399 50.0861 31.6399C49.2959 31.6399 48.7403 32.0597 48.7403 32.6648C48.7403 33.1586 49.2465 33.455 49.8392 33.5785L51.4937 33.9983C53.8026 34.5662 54.2224 35.9368 54.2224 36.8258C54.2224 38.8013 52.1358 39.8385 50.0367 39.8385C47.9871 39.8385 45.9374 38.6779 45.9004 36.6035Z" fill="#1C1C1C"/>
<path d="M56.7792 29.0472C57.5839 29.0472 58.2362 28.3727 58.2362 27.5408C58.2362 26.7088 57.5839 26.0344 56.7792 26.0344C55.9746 26.0344 55.3223 26.7088 55.3223 27.5408C55.3223 28.3727 55.9746 29.0472 56.7792 29.0472Z" fill="#1C1C1C"/>
<path d="M97.6232 33.8132V39.6164H95.2526V38.3323C94.5982 39.2336 93.2153 39.8263 91.9188 39.8263C89.8938 39.8263 88.4492 38.641 88.4492 36.8136C88.4492 34.8627 90.1284 33.7762 92.2769 33.7762C93.3634 33.7762 94.4994 34.0478 95.2526 34.4676V33.8873C95.2526 32.6649 94.4253 31.8006 93.0547 31.8006C91.8818 31.8006 90.7952 32.2327 90.3013 32.8378L88.9801 31.4549C89.7704 30.393 91.4126 29.6892 93.2029 29.6892C95.7588 29.6892 97.6232 31.1462 97.6232 33.8132ZM95.2526 36.4679V36.0727C94.6228 35.6776 93.6227 35.4307 92.6967 35.4307C91.3632 35.4307 90.7211 36.011 90.7211 36.7025C90.7211 37.3939 91.3508 37.8507 92.388 37.8507C93.4252 37.8507 94.6722 37.3198 95.2526 36.4679Z" fill="#1C1C1C"/>
</g>
<defs>
<clipPath id="clip0_15967_3908">
<rect width="75.884" height="22" fill="white" transform="translate(22.0586 22.75)"/>
</clipPath>
</defs>
</svg>
