<svg width="120" height="68" viewBox="0 0 120 68" fill="none" xmlns="http://www.w3.org/2000/svg">
<g clip-path="url(#clip0_15967_3909)">
<path d="M35.5362 23.25H21.5188C19.5742 23.25 18 24.8201 18 26.7596V40.7404C18 42.6799 19.5742 44.25 21.5188 44.25H35.5362C37.4808 44.25 39.055 42.6799 39.055 40.7404V26.7596C39.055 24.8201 37.4808 23.25 35.5362 23.25ZM35.2236 39.3319C35.2236 39.9438 34.7259 40.4402 34.1124 40.4402H22.9425C22.3291 40.4402 21.8313 39.9438 21.8313 39.3319V28.1796C21.8313 27.5678 22.3291 27.0713 22.9425 27.0713H34.124C34.7375 27.0713 35.2352 27.5678 35.2352 28.1796V39.3319H35.2236Z" fill="#1A1A1A"/>
<path d="M26.2987 36.5958C25.9399 36.5958 25.6621 36.3072 25.6621 35.9608V31.5161C25.6621 31.1582 25.9515 30.8811 26.2987 30.8811H30.7667C31.1139 30.8811 31.4033 31.1697 31.4033 31.5161V35.9608C31.4033 36.3187 31.1139 36.5958 30.7667 36.5958H26.2987Z" fill="#1A1A1A"/>
<path d="M44.6465 36.2956H46.9383C47.0541 37.6001 47.9338 38.6045 49.7163 38.6045C51.3021 38.6045 52.286 37.8195 52.286 36.6419C52.286 35.5336 51.5221 35.0372 50.1446 34.7139L48.3621 34.3329C46.4175 33.9058 44.9706 32.6705 44.9706 30.6386C44.9706 28.3989 46.9615 26.875 49.5543 26.875C52.2976 26.875 54.057 28.3066 54.2075 30.4308H51.9851C51.7188 29.4379 50.897 28.8492 49.5543 28.8492C48.1421 28.8492 47.1583 29.6111 47.1583 30.5924C47.1583 31.5737 48.0032 32.1625 49.4617 32.4858L51.2211 32.8668C53.1541 33.2824 54.4737 34.4484 54.4737 36.4918C54.4737 39.0894 52.5175 40.6364 49.7163 40.6364C46.5795 40.6364 44.8317 38.9393 44.6465 36.2956Z" fill="#1A1A1A"/>
<path d="M62.6918 44.2499V40.4401L62.8423 38.7776H62.6918C62.1709 39.9783 61.0597 40.6363 59.555 40.6363C57.1358 40.6363 55.3301 38.6737 55.3301 35.649C55.3301 32.6358 57.1358 30.6616 59.555 30.6616C61.0366 30.6616 62.0899 31.3543 62.6918 32.4395H62.8423V30.8579H64.8332V44.2614H62.6918V44.2499ZM62.7728 35.649C62.7728 33.721 61.5922 32.5896 60.1453 32.5896C58.6984 32.5896 57.5178 33.7095 57.5178 35.649C57.5178 37.577 58.6984 38.7084 60.1453 38.7084C61.5922 38.7084 62.7728 37.577 62.7728 35.649Z" fill="#1A1A1A"/>
<path d="M66.4316 36.6419V30.8579H68.573V36.4571C68.573 37.9695 69.3022 38.7084 70.5292 38.7084C72.034 38.7084 73.0063 37.6347 73.0063 35.9723V30.8579H75.1476V40.4516H73.1567V38.4659H73.0063C72.5317 39.7359 71.5015 40.6364 69.9042 40.6364C67.6123 40.6364 66.4316 39.1702 66.4316 36.6419Z" fill="#1A1A1A"/>
<path d="M76.4551 37.7734C76.4551 35.9724 77.7168 34.9218 79.9507 34.7948L82.6014 34.6217V33.8713C82.6014 32.9708 81.9416 32.4281 80.7841 32.4281C79.7077 32.4281 79.071 32.9708 78.909 33.7443H76.7676C76.9875 31.7932 78.608 30.6733 80.7841 30.6733C83.2496 30.6733 84.7544 31.7239 84.7544 33.7443V40.4518H82.7635V38.6739H82.613C82.1616 39.8515 81.224 40.6365 79.4183 40.6365C77.6705 40.6365 76.4551 39.4705 76.4551 37.7734ZM82.6014 36.5843V36.0763L80.4369 36.2264C79.2678 36.2957 78.7469 36.7344 78.7469 37.6002C78.7469 38.3275 79.3488 38.8586 80.1938 38.8586C81.7101 38.8586 82.6014 37.8773 82.6014 36.5843Z" fill="#1A1A1A"/>
<path d="M86.3398 40.4516V30.8579H88.3307V32.6935H88.4812C88.759 31.4352 89.7198 30.8579 91.1551 30.8579H92.1274V32.7859H90.9004C89.5114 32.7859 88.4812 33.6864 88.4812 35.395V40.4516H86.3398Z" fill="#1A1A1A"/>
<path d="M101.932 36.0415H94.6279C94.7436 37.8079 95.9821 38.8007 97.348 38.8007C98.5171 38.8007 99.2463 38.3274 99.663 37.5423H101.781C101.202 39.4934 99.4894 40.6363 97.3248 40.6363C94.489 40.6363 92.498 38.5236 92.498 35.649C92.498 32.7859 94.5468 30.6616 97.348 30.6616C100.172 30.6616 102.013 32.5896 102.013 34.9909C102.001 35.4643 101.966 35.7067 101.932 36.0415ZM99.8829 34.5638C99.8135 33.2361 98.7023 32.3356 97.348 32.3356C96.0747 32.3356 94.9983 33.1438 94.732 34.5638H99.8829Z" fill="#1A1A1A"/>
</g>
<defs>
<clipPath id="clip0_15967_3909">
<rect width="84" height="21" fill="white" transform="translate(18 23.25)"/>
</clipPath>
</defs>
</svg>
