<svg width="120" height="68" viewBox="0 0 120 68" fill="none" xmlns="http://www.w3.org/2000/svg">
<g clip-path="url(#clip0_15967_3726)">
<path d="M32.7649 48.25C38.5259 48.25 41.5046 46.4634 42.4037 44.6718C42.4554 44.5685 42.3563 44.4515 42.2469 44.4878C41.2328 44.8235 40.4759 44.1999 40.391 43.4802C40.391 43.4802 40.1075 40.4281 39.0935 40.1303C39.1536 40.0065 39.398 39.0311 38.6424 38.1299C38.849 37.4924 38.6783 37.0726 38.5237 36.7553C38.7121 36.5241 38.8568 36.226 38.9193 35.9356C38.9348 35.8668 38.9345 35.806 38.9903 35.7411C39.3466 35.4448 39.7398 35.2004 39.979 34.7667C40.4099 33.983 40.1212 33.088 39.5988 32.4275C39.5458 32.3546 39.5043 32.3196 39.5006 32.1322C39.5018 31.812 39.4439 31.4825 39.2719 31.212C39.1842 31.0746 39.0693 30.9558 38.9488 30.8456C38.4469 30.3772 37.8464 30.0313 37.2698 29.6578C37.1905 29.6069 37.0982 29.5392 37.0638 29.4468C36.8822 28.7705 36.4128 28.2474 35.8291 28.105C35.8167 27.6521 35.3396 26.9652 34.6177 26.9652C34.3974 26.9652 34.2152 27.085 34.1015 26.8787C33.8375 26.3777 33.3114 26.2846 33.0369 26.2719C32.9908 26.2697 32.9777 26.2076 33.0196 26.1878C33.1076 26.1456 33.2408 26.0873 33.4385 26.011C34.4299 25.536 34.0197 22.8304 33.6138 21.4027C33.4239 20.8698 32.9424 19.354 31.7629 19.2538C31.6817 19.2469 31.5987 19.2488 31.5203 19.2714C31.2932 19.3369 31.125 19.519 31.0066 19.7712C30.6165 20.5561 30.5189 22.6747 30.3755 23.5806C30.1719 24.8724 29.9876 26.2582 29.3447 26.8262C29.0708 26.1031 28.6745 25.768 28.458 25.7808C28.2693 25.8251 28.5246 26.1921 28.4158 26.7335C28.3402 27.045 28.168 27.3357 27.8746 27.3357C27.0148 27.3357 26.2405 23.0318 26.0094 20.4463C26.0032 20.3787 25.9967 20.3113 25.9843 20.2443C25.8709 19.6195 25.5425 19.2507 25.1955 19.2507C25.0195 19.2507 24.3877 19.1864 23.6643 20.325C23.167 21.2129 22.851 22.1411 22.8203 23.8697C22.8209 25.6117 23.5974 26.7766 23.9118 27.3496C25.197 29.4651 25.3687 30.1954 25.1254 31.485C24.8782 32.7353 25.6323 33.4383 25.6323 33.4383C25.5257 33.6036 25.3851 34.0466 25.3525 34.5328C25.3318 34.8424 25.395 35.3977 25.5428 35.7414C25.2184 36.441 25.2261 36.9969 25.2261 37.3475C25.2261 38.1597 24.872 38.4904 24.4116 38.635C24.5358 39.078 25.3615 39.3153 25.8393 38.8419C25.6983 40.2333 25.4377 41.4866 25.074 43.0378C24.8478 44.0997 24.8859 44.6948 25.0573 45.1986C25.1344 45.4257 25.2553 45.6348 25.403 45.8234C27.165 48.0729 30.4712 48.25 32.7649 48.25ZM32.7621 45.2138C32.1273 45.1105 31.5333 44.7937 31.0999 44.3141C29.9448 44.6969 28.7439 43.724 29.1089 42.4397C29.1672 42.2715 29.4175 42.3333 29.3927 42.5086C29.3568 42.7347 29.3983 42.9661 29.4953 43.1653C29.7534 43.7557 30.5227 43.9145 30.9942 43.5032C31.1687 43.3493 31.4209 43.4079 31.5392 43.5987C32.5719 45.0013 34.7143 44.7382 35.4328 43.1638C35.5382 42.9438 35.607 42.7108 35.6469 42.4695C35.6751 42.2982 35.9317 42.3143 35.9388 42.4875C35.9967 44.1819 34.4119 45.4787 32.7618 45.2141L32.7621 45.2138Z" fill="#240642"/>
<path d="M39.2398 33.1145C39.1295 33.1145 39.0108 33.2687 38.9805 33.5088C38.9148 33.8472 38.9374 34.473 38.6359 34.473C38.4274 34.473 38.4085 34.0535 38.0581 33.667C37.6947 33.2919 37.1735 33.2538 36.8392 32.9839C36.6533 32.8548 36.5427 32.696 36.5548 32.4233C36.5548 32.4233 36.5945 31.9889 37.1801 32.0684C37.4586 32.0975 37.91 32.1655 38.1895 32.1974C38.6886 32.2539 38.8104 31.8822 38.8252 31.756C38.8572 31.46 38.5433 31.2149 38.3447 31.0424C38.0937 30.8237 37.8202 30.6273 37.5367 30.4511C37.4852 30.4192 37.4329 30.386 37.3805 30.3525C36.6695 29.8986 35.4054 29.1388 34.6965 30.0062C34.4424 30.3469 34.3321 30.7393 34.2525 31.0644C34.1053 31.6595 33.7964 31.889 33.5771 32.252C33.2285 32.8281 32.989 33.4824 32.9707 34.1556C32.9676 35.1276 33.5681 36.0797 34.5261 36.6747C35.3211 37.0923 35.7291 37.0923 36.0476 37.007C36.1059 36.9871 36.2335 36.8981 36.1458 36.7507C36.13 36.7194 36.0857 36.6505 36.0588 36.6058C35.968 36.4386 36.0922 36.2857 36.2763 36.4287C36.3974 36.5236 36.521 36.6186 36.6636 36.6766C36.7835 36.7253 36.9201 36.7445 37.044 36.7116C37.044 36.7116 37.044 36.7116 37.0443 36.7116C37.1893 36.6642 37.2628 36.5689 37.2711 36.4473C37.2795 36.3021 37.2138 36.1898 37.1051 36.1299C36.9396 36.0493 36.5734 35.8476 36.4188 35.7335C36.2444 35.6112 36.0579 35.4285 35.9931 35.3596C35.7821 35.135 35.7217 34.9157 35.5903 34.9157C35.5683 34.9169 35.5469 34.9293 35.5321 34.9461C35.4497 35.0342 35.449 35.1794 35.445 35.2622C35.4422 35.3233 35.4518 35.4164 35.3663 35.4164C35.1544 35.4164 35.155 34.974 35.1553 34.8539C35.1553 34.6895 35.2154 34.263 35.4692 34.263C35.5476 34.263 35.6541 34.3681 35.696 34.4094C36.2552 35.0308 36.9052 35.5141 37.7288 35.5141C38.3593 35.5141 38.886 35.1577 39.2172 34.8235C39.4765 34.5629 39.6472 34.2366 39.6587 33.8994C39.6658 33.6856 39.5633 33.1148 39.2398 33.1148V33.1145ZM35.6272 33.6927C35.5507 33.7352 35.4593 33.6825 35.3759 33.6552C35.2083 33.6 35.0181 33.6558 34.8799 33.7657C34.7851 33.8413 34.7126 33.9403 34.6537 34.047C34.5896 34.1637 34.5775 34.3176 34.4396 34.3176C34.3262 34.3176 34.2692 34.1603 34.2568 34.0954C34.1902 33.7433 34.36 33.3515 34.6757 33.1827C34.9914 33.014 35.4292 33.1033 35.6334 33.3974C35.665 33.443 35.6919 33.4945 35.6957 33.55C35.6994 33.6056 35.6761 33.6658 35.6275 33.6927H35.6272Z" fill="white"/>
<path d="M31.4734 29.6628C31.1719 29.6671 30.8794 29.7968 30.6663 30.0158C30.5464 30.139 30.2793 30.5373 30.3053 31.1513C30.301 31.2416 30.1823 31.2738 30.1346 31.1969C29.9422 30.8519 29.931 30.492 30.0057 30.2265C30.1715 29.6898 30.6396 29.2437 31.2723 29.2437C32.1023 29.2437 32.3105 29.7872 32.3521 29.9556C32.3719 30.0254 32.2857 30.0769 32.2328 30.0273C32.0952 29.8992 31.883 29.6628 31.4728 29.6628H31.4734Z" fill="white"/>
<path d="M31.5419 30.8783C31.3436 30.896 31.1872 30.7678 31.1695 30.5696C31.1522 30.3748 31.2832 30.2141 31.4815 30.1964C31.6798 30.1787 31.8406 30.3136 31.8579 30.5085C31.8756 30.707 31.7402 30.8606 31.5422 30.8783H31.5419Z" fill="white"/>
<path d="M25.0424 27.1682C24.7499 27.1682 23.791 25.6109 23.791 23.4119C23.791 22.4251 24.0441 21.3718 24.5042 21.3718C24.7874 21.3718 24.8516 21.9755 24.8646 22.1545C25.0136 24.0432 24.7704 25.3261 25.1254 27.037C25.149 27.1372 25.0886 27.1685 25.0424 27.1685V27.1682Z" fill="white"/>
<path d="M78.4395 41.2249C78.125 40.8374 77.9534 40.3534 77.9534 39.8543V36.2497C77.9534 33.6915 76.7491 32.2266 74.6193 32.2266C71.7835 32.2266 71.2344 33.7734 70.4794 35.0894C70.4428 35.153 70.362 35.1756 70.2972 35.1409L70.1395 35.0562C70.072 35.0199 70.0475 34.9352 70.0856 34.8685L70.3009 34.4916C70.4369 34.2577 70.5098 33.9921 70.5098 33.7213V33.1774C70.5098 32.8266 70.2256 32.5421 69.8752 32.5421H66.7872C66.3221 32.5421 66.0715 33.0887 66.3748 33.4417L66.8246 33.9657C67.2782 34.4941 67.5276 35.1676 67.5276 35.8644V39.6061C67.5276 40.0212 67.439 40.4316 67.2677 40.8095L66.9102 41.5987C66.7469 41.9592 67.0099 42.3684 67.4056 42.3684H71.2636C71.723 42.3684 71.9756 41.8336 71.684 41.478L71.3717 41.0974C71.0532 40.7087 70.8788 40.2216 70.8788 39.7187V37.6541C70.8788 36.9334 71.051 36.218 71.412 35.5945C71.8501 34.8375 72.422 34.4506 73.138 34.4506C74.1016 34.4506 74.6193 35.1378 74.6193 36.379V39.7327C74.6193 40.1378 74.5351 40.5383 74.3715 40.9091L74.065 41.6037C73.9064 41.9639 74.1695 42.3684 74.5626 42.3684H78.2245C78.6827 42.3684 78.9356 41.836 78.6465 41.4802L78.4392 41.2249H78.4395Z" fill="#240642"/>
<path d="M85.3163 40.9304C85.193 40.9549 85.0721 40.972 84.9659 40.9744C83.9707 40.9744 83.4917 40.3471 83.4917 39.0569V33.9297H85.3039C85.5136 33.9297 85.6837 33.7593 85.6837 33.5493V32.9282C85.6837 32.7182 85.5136 32.5479 85.3039 32.5479H82.9848C82.9197 32.5479 82.8671 32.4951 82.8671 32.43V32.256C82.8671 32.1911 82.9191 32.1384 82.9839 32.1381H83.2193C83.3696 32.1384 83.4917 32.0164 83.4917 31.866V30.5096C83.4917 30.2509 83.2822 30.0415 83.0242 30.0415H81.6903C81.4474 30.0415 81.2324 30.1991 81.1602 30.4315C81.0062 30.9403 80.6357 32.5482 79.4304 32.5482H79.072C78.8631 32.5482 78.6934 32.7182 78.6934 32.9285V33.5496C78.6934 33.76 78.8631 33.93 79.072 33.93H80.1771V39.1869C80.1771 41.3256 81.264 42.5058 83.2339 42.5058C84.217 42.5058 85.1084 42.1462 85.6484 41.4981C85.8585 41.245 85.6397 40.8671 85.3163 40.9307V40.9304Z" fill="#240642"/>
<path d="M65.9523 40.5437C65.3652 40.6498 64.968 40.1892 64.968 39.4663V35.9874C64.968 33.5061 63.3975 32.1733 60.3469 32.1733C57.6148 32.1733 55.749 33.225 55.7441 34.8134C55.7428 35.0985 55.8497 35.3781 56.0071 35.647C56.2603 36.0361 56.7176 36.297 57.2415 36.297C58.039 36.297 58.6856 35.6945 58.6856 34.9515C58.6831 34.1895 58.0405 33.8033 57.8457 33.7307C57.9841 33.6125 58.5824 33.1509 59.4658 33.1509C60.8699 33.1509 61.6219 34.2165 61.6219 35.8757V36.5352C60.5678 36.5352 59.3858 36.641 58.5542 36.8442C56.5196 37.2894 55.4473 38.4487 55.4473 39.8929C55.4473 41.5216 56.7417 42.5392 58.7934 42.5392C60.2174 42.5392 61.4006 42.0403 61.9552 41.2064C62.3056 41.9106 63.0824 42.3546 64.0813 42.3546C65.3733 42.3546 66.0499 41.6795 66.2637 40.8773C66.3189 40.6489 66.1466 40.5056 65.9523 40.5434V40.5437ZM61.6219 39.7635C61.5119 40.54 60.9759 41.0035 60.1991 41.0035C59.348 41.0035 58.7751 40.4299 58.7751 39.5228C58.7751 38.8195 59.089 38.2046 59.774 37.9086C60.2357 37.7045 60.956 37.5931 61.6219 37.5748V39.7638V39.7635Z" fill="#240642"/>
<path d="M96.8586 40.5437C96.2715 40.6498 95.8743 40.1892 95.8743 39.4663V35.9874C95.8743 33.5061 94.3037 32.1733 91.2531 32.1733C88.5211 32.1733 86.6553 33.225 86.6503 34.8134C86.6491 35.0985 86.756 35.3781 86.9134 35.647C87.1665 36.0361 87.6238 36.297 88.1477 36.297C88.9452 36.297 89.5918 35.6945 89.5918 34.9515C89.5894 34.1895 88.9468 33.8033 88.7519 33.7307C88.8904 33.6125 89.4887 33.1509 90.372 33.1509C91.7761 33.1509 92.5281 34.2165 92.5281 35.8757V36.5352C91.4741 36.5352 90.2921 36.641 89.4605 36.8442C87.4258 37.2894 86.3535 38.4487 86.3535 39.8929C86.3535 41.5216 87.648 42.5392 89.6997 42.5392C91.1236 42.5392 92.3069 42.0403 92.8615 41.2064C93.2119 41.9106 93.9886 42.3546 94.9875 42.3546C96.2795 42.3546 96.9562 41.6795 97.17 40.8773C97.2251 40.6489 97.0528 40.5056 96.8586 40.5434V40.5437ZM92.5281 39.7635C92.4181 40.54 91.8821 41.0035 91.1054 41.0035C90.2543 41.0035 89.6814 40.4299 89.6814 39.5228C89.6814 38.8195 89.9952 38.2046 90.6803 37.9086C91.1419 37.7045 91.8623 37.5931 92.5281 37.5748V39.7638V39.7635Z" fill="#240642"/>
<path d="M55.973 29.2668H54.2962C53.9353 29.2668 53.7193 29.6686 53.9176 29.9701L54.2048 30.4073C54.4502 30.7808 54.4982 31.2505 54.3334 31.6659L51.3253 39.2421C51.1868 39.6069 51.0464 39.857 50.9829 39.9184C50.9488 39.9513 50.8918 39.9612 50.8475 39.928L50.6889 39.8018C50.6384 39.7639 50.6415 39.709 50.6876 39.6572C50.7759 39.5399 50.8308 39.3984 50.8614 39.2697C50.8983 39.1152 50.8859 38.953 50.8295 38.8044L48.2821 32.0614C48.1139 31.6166 48.1204 31.1242 48.3004 30.6837L48.5724 30.0179C48.719 29.6596 48.4556 29.2668 48.0689 29.2668H43.964C43.411 29.2668 43.1225 29.9258 43.4974 30.3328L43.7586 30.6167C44.2385 31.1382 44.6178 31.7437 44.8774 32.4033L48.5349 41.9746C48.6307 42.2175 48.8646 42.377 49.1255 42.377H51.1508C51.4111 42.377 51.645 42.2178 51.7407 41.9759L56.4786 30.0126C56.6202 29.6549 56.3572 29.2672 55.973 29.2672V29.2668Z" fill="#240642"/>
</g>
<defs>
<clipPath id="clip0_15967_3726">
<rect width="74.359" height="29" fill="white" transform="translate(22.8203 19.25)"/>
</clipPath>
</defs>
</svg>
