<svg width="120" height="68" viewBox="0 0 120 68" fill="none" xmlns="http://www.w3.org/2000/svg">
<g clip-path="url(#clip0_15967_3723)">
<path fill-rule="evenodd" clip-rule="evenodd" d="M14.7266 37.3603L27.7216 24.335C28.0015 24.0544 28.4531 24.0544 28.733 24.335L32.9714 28.5815C33.2513 28.8621 33.2513 29.3174 32.9714 29.5954L20.4834 42.1125C20.2034 42.3931 19.7492 42.3931 19.4693 42.1125L14.7266 37.3603Z" fill="black"/>
<path fill-rule="evenodd" clip-rule="evenodd" d="M6.98338 29.5974C6.70346 29.3168 6.70346 28.8614 6.98338 28.5834L11.2218 24.3369C11.5017 24.0563 11.9559 24.0563 12.2358 24.3369L18.8059 30.9211L13.5535 36.1815L6.98338 29.5974Z" fill="black"/>
<path d="M42.2598 26.5161H44.853L48.9435 37.4156L53.034 26.5161H55.6272L50.3404 40.5157H47.5465L42.2598 26.5161Z" fill="black"/>
<path d="M63.7896 39.017C63.7896 39.017 62.493 40.7166 59.6991 40.7166C56.5065 40.7166 54.0453 37.9183 54.5867 34.7361C55.0066 32.2792 57.2221 30.4658 59.7097 30.5187C62.4455 30.5743 64.3891 32.7531 64.3891 35.4165C64.3891 36.0174 64.2887 36.5178 64.2887 36.5178H57.0082C57.2485 37.6191 58.2045 38.6172 59.8021 38.6172C61.4975 38.6172 62.4957 37.3967 62.4957 37.3967L63.7896 39.017ZM61.8936 34.6169C61.5952 33.5156 60.795 32.7161 59.4984 32.7161C58.1015 32.7161 57.304 33.5156 57.0056 34.6169H61.8936Z" fill="black"/>
<path d="M66.2422 30.7178H68.537V32.1183H68.6373C68.6373 32.1183 69.6355 30.5193 71.4312 30.5193H71.83V33.0185C71.83 33.0185 71.5316 32.9179 71.0325 32.9179C69.6355 32.9179 68.5396 34.0192 68.5396 35.7188V40.5186H66.2448V30.7178H66.2422Z" fill="black"/>
<path d="M73.2702 26.5161H75.565V35.017L79.4548 30.7176H82.2487L78.557 34.8158L82.4468 40.5157H79.8536L77.0597 36.4149L75.5624 38.1145V40.5157H73.2676V26.5161H73.2702Z" fill="black"/>
<path d="M89.2354 39.2158H89.135C89.135 39.2158 88.2372 40.7169 86.2434 40.7169C84.3474 40.7169 83.0508 39.417 83.0508 37.9159C83.0508 36.3168 84.247 35.1149 85.9424 34.8157L89.2354 34.2148C89.2354 33.5159 88.4379 32.7137 87.3393 32.7137C85.8817 32.7137 84.9442 33.913 84.9442 33.913L83.5472 32.5125C83.5472 32.5125 84.9442 30.5137 87.437 30.5137C89.8322 30.5137 91.5275 32.2742 91.5275 34.4133V40.513H89.2327V39.2158H89.2354ZM89.2354 36.015L86.9406 36.4148C85.7443 36.6345 85.3456 37.0158 85.3456 37.6141C85.3456 38.2124 85.945 38.8134 86.8429 38.8134C88.1395 38.8134 89.238 37.712 89.238 36.3142V36.015H89.2354Z" fill="black"/>
<path d="M100.768 39.1152H100.667C100.667 39.1152 99.7696 40.7143 97.4748 40.7143C95.18 40.7143 93.0859 38.6149 93.0859 35.6153C93.0859 32.6158 95.18 30.5164 97.4748 30.5164C99.7696 30.5164 100.667 32.1154 100.667 32.1154H100.768V26.5161H103.063V40.5157H100.768V39.1152ZM100.768 35.6153C100.768 34.0163 99.5716 32.8143 98.0743 32.8143C96.577 32.8143 95.3807 34.0136 95.3807 35.6153C95.3807 37.2144 96.577 38.4163 98.0743 38.4163C99.5716 38.4163 100.768 37.217 100.768 35.6153Z" fill="black"/>
<path d="M110.845 39.2158H110.744C110.744 39.2158 109.847 40.7169 107.853 40.7169C105.957 40.7169 104.66 39.417 104.66 37.9159C104.66 36.3168 105.856 35.1149 107.552 34.8157L110.845 34.2148C110.845 33.5159 110.047 32.7137 108.949 32.7137C107.494 32.7137 106.554 33.913 106.554 33.913L105.157 32.5125C105.157 32.5125 106.554 30.5137 109.046 30.5137C111.442 30.5137 113.137 32.2742 113.137 34.4133V40.513H110.842V39.2158H110.845ZM110.845 36.015L108.55 36.4148C107.354 36.6345 106.955 37.0158 106.955 37.6141C106.955 38.2124 107.554 38.8134 108.452 38.8134C109.749 38.8134 110.847 37.712 110.847 36.3142V36.015H110.845Z" fill="black"/>
</g>
<defs>
<clipPath id="clip0_15967_3723">
<rect width="109.2" height="21" fill="white" transform="translate(5.40039 23.25)"/>
</clipPath>
</defs>
</svg>
